<svg width="107" height="84" viewBox="0 0 107 84" fill="none" xmlns="http://www.w3.org/2000/svg">
<rect x="0.5" y="0.5" width="106" height="83" rx="7.5" fill="white" stroke="#04182F"/>
<path d="M15.144 65.536C15.0053 65.536 14.8613 65.5253 14.712 65.504C14.552 65.4933 14.3973 65.4827 14.248 65.472L14.392 64.336C14.5413 64.3467 14.68 64.3573 14.808 64.368C14.936 64.3893 15.048 64.4 15.144 64.4C15.6453 64.4 16.0507 64.208 16.36 63.824C16.6693 63.4507 16.824 62.928 16.824 62.256V54H18.072V62.256C18.072 62.9067 17.944 63.4773 17.688 63.968C17.4427 64.4693 17.1013 64.8533 16.664 65.12C16.2267 65.3973 15.72 65.536 15.144 65.536ZM26.7231 62V60.864H28.4511V62H26.7231ZM22.9311 65.536C22.5578 65.536 22.1578 65.504 21.7311 65.44C21.3151 65.3867 20.8565 65.3067 20.3551 65.2L20.5471 64.192C21.1125 64.2667 21.5818 64.32 21.9551 64.352C22.3391 64.384 22.6645 64.4 22.9311 64.4C23.8165 64.4 24.4618 64.2293 24.8671 63.888C25.2725 63.5573 25.4751 63.072 25.4751 62.432V54.72L26.1151 55.136H23.4111C22.7925 55.136 22.3125 55.2107 21.9711 55.36C21.6405 55.5093 21.4111 55.792 21.2831 56.208C21.1551 56.6133 21.0911 57.2107 21.0911 58C21.0911 58.7893 21.1551 59.392 21.2831 59.808C21.4111 60.2133 21.6405 60.4907 21.9711 60.64C22.3125 60.7893 22.7925 60.864 23.4111 60.864H25.4751V62H23.4111C22.4831 62 21.7578 61.8613 21.2351 61.584C20.7231 61.296 20.3605 60.8587 20.1471 60.272C19.9445 59.6747 19.8431 58.9173 19.8431 58C19.8431 57.0827 19.9445 56.3307 20.1471 55.744C20.3605 55.1467 20.7231 54.7093 21.2351 54.432C21.7578 54.144 22.4831 54 23.4111 54H26.7231V62.416C26.7231 63.0773 26.5685 63.6427 26.2591 64.112C25.9605 64.5813 25.5285 64.9333 24.9631 65.168C24.3978 65.4133 23.7205 65.536 22.9311 65.536ZM28.4511 62V60.864C28.5151 60.864 28.5685 60.88 28.6111 60.912C28.6538 60.9333 28.6858 60.9707 28.7071 61.024C28.7285 61.0667 28.7445 61.1253 28.7551 61.2C28.7658 61.264 28.7711 61.3387 28.7711 61.424C28.7711 61.5093 28.7658 61.5893 28.7551 61.664C28.7445 61.7387 28.7285 61.8027 28.7071 61.856C28.6858 61.8987 28.6538 61.936 28.6111 61.968C28.5685 61.9893 28.5151 62 28.4511 62ZM37.2531 62V60.864H38.9811V62H37.2531ZM28.4531 62C28.3891 62 28.3358 61.9893 28.2931 61.968C28.2505 61.936 28.2185 61.8987 28.1971 61.856C28.1758 61.8027 28.1598 61.7387 28.1491 61.664C28.1385 61.5893 28.1331 61.5093 28.1331 61.424C28.1331 61.3067 28.1438 61.2107 28.1651 61.136C28.1758 61.0507 28.2078 60.9867 28.2611 60.944C28.3038 60.8907 28.3678 60.864 28.4531 60.864V62ZM28.4531 62V60.864H36.4531L36.0051 61.264V58.416C36.0051 57.84 35.9251 57.3653 35.7651 56.992C35.6158 56.608 35.3865 56.3253 35.0771 56.144C34.7785 55.952 34.3998 55.856 33.9411 55.856H30.4531L29.5411 54.48L30.2291 53.152C30.3571 52.9173 30.4905 52.6773 30.6291 52.432C30.7678 52.1867 30.9385 51.904 31.1411 51.584C31.3438 51.264 31.5998 50.8747 31.9091 50.416L32.9491 51.04C32.6398 51.5093 32.3891 51.8987 32.1971 52.208C32.0051 52.5173 31.8398 52.784 31.7011 53.008C31.5731 53.232 31.4505 53.456 31.3331 53.68L30.5331 55.216L30.2131 54.72H33.9411C34.6131 54.72 35.1625 54.8373 35.5891 55.072C36.0265 55.296 36.3625 55.5947 36.5971 55.968C36.8425 56.3413 37.0131 56.7467 37.1091 57.184C37.2051 57.6107 37.2531 58.0213 37.2531 58.416V62H28.4531ZM38.9811 62V60.864C39.0451 60.864 39.0985 60.88 39.1411 60.912C39.1838 60.9333 39.2158 60.9707 39.2371 61.024C39.2585 61.0667 39.2745 61.1253 39.2851 61.2C39.2958 61.264 39.3011 61.3387 39.3011 61.424C39.3011 61.5093 39.2958 61.5893 39.2851 61.664C39.2745 61.7387 39.2585 61.8027 39.2371 61.856C39.2158 61.8987 39.1838 61.936 39.1411 61.968C39.0985 61.9893 39.0451 62 38.9811 62ZM38.9844 62V60.864H41.2884L40.7124 61.328V54H41.9604V62H38.9844ZM38.9844 62C38.9204 62 38.867 61.9893 38.8244 61.968C38.7817 61.936 38.7497 61.8987 38.7284 61.856C38.707 61.8027 38.691 61.7387 38.6804 61.664C38.6697 61.5893 38.6644 61.5093 38.6644 61.424C38.6644 61.3067 38.675 61.2107 38.6964 61.136C38.707 61.0507 38.739 60.9867 38.7924 60.944C38.835 60.8907 38.899 60.864 38.9844 60.864V62ZM39.6244 64.88V63.44H40.8724V64.88H39.6244ZM41.8164 64.88V63.44H43.0644V64.88H41.8164ZM43.89 62V60.864H49.858L48.834 61.776V58.288C48.834 57.4987 48.7433 56.8747 48.562 56.416C48.3807 55.9573 48.082 55.632 47.666 55.44C47.2607 55.2373 46.7113 55.136 46.018 55.136H44.722V54H46.018C46.8713 54 47.602 54.1333 48.21 54.4C48.818 54.6667 49.282 55.1147 49.602 55.744C49.922 56.3627 50.082 57.2107 50.082 58.288V62H43.89ZM54.7124 65.536C54.339 65.536 53.939 65.504 53.5124 65.44C53.0964 65.3867 52.6377 65.3067 52.1364 65.2L52.3284 64.192C52.8937 64.2667 53.363 64.32 53.7364 64.352C54.1204 64.384 54.4457 64.4 54.7124 64.4C55.5977 64.4 56.243 64.2293 56.6484 63.888C57.0537 63.5573 57.2564 63.072 57.2564 62.432V54.72L57.8964 55.136H55.1924C54.5737 55.136 54.0937 55.2107 53.7524 55.36C53.4217 55.5093 53.1924 55.792 53.0644 56.208C52.9364 56.6133 52.8724 57.2107 52.8724 58C52.8724 58.7893 52.9364 59.392 53.0644 59.808C53.1924 60.2133 53.4217 60.4907 53.7524 60.64C54.0937 60.7893 54.5737 60.864 55.1924 60.864H57.2564V62H55.1924C54.2644 62 53.539 61.8613 53.0164 61.584C52.5044 61.296 52.1417 60.8587 51.9284 60.272C51.7257 59.6747 51.6244 58.9173 51.6244 58C51.6244 57.0827 51.7257 56.3307 51.9284 55.744C52.1417 55.1467 52.5044 54.7093 53.0164 54.432C53.539 54.144 54.2644 54 55.1924 54H58.5044V62.416C58.5044 63.0773 58.3497 63.6427 58.0404 64.112C57.7417 64.5813 57.3097 64.9333 56.7444 65.168C56.179 65.4133 55.5017 65.536 54.7124 65.536ZM68.6108 62C67.5548 62 66.6748 61.8773 65.9708 61.632C65.2668 61.3867 64.7388 61.0133 64.3868 60.512C64.0348 60.0107 63.8588 59.3707 63.8588 58.592C63.8588 58.336 63.8748 58.0587 63.9068 57.76C63.9494 57.4613 63.9974 57.1733 64.0508 56.896C64.1041 56.608 64.1521 56.3627 64.1948 56.16C64.2374 55.9467 64.2641 55.8027 64.2747 55.728L65.4908 55.952C65.4588 56.1227 65.4108 56.3573 65.3468 56.656C65.2934 56.9547 65.2401 57.2747 65.1868 57.616C65.1334 57.9573 65.1068 58.2827 65.1068 58.592C65.1068 58.9867 65.1654 59.328 65.2828 59.616C65.4108 59.904 65.6081 60.144 65.8748 60.336C66.1521 60.5173 66.5148 60.6507 66.9628 60.736C67.4108 60.8213 67.9601 60.864 68.6108 60.864H73.3148V54H74.5628V62H68.6108ZM68.6428 52V50.64H69.7948V52H68.6428ZM67.4908 54.112V52.672H68.7388V54.112H67.4908ZM69.6828 54.112V52.672H70.9308V54.112H69.6828ZM78.6274 62V60.864H80.5794V62H78.6274ZM77.3954 62V50.528H78.6274V62H77.3954ZM80.5794 62V60.864C80.6434 60.864 80.6967 60.88 80.7394 60.912C80.782 60.9333 80.814 60.9707 80.8354 61.024C80.8567 61.0667 80.8727 61.1253 80.8834 61.2C80.894 61.264 80.8994 61.3387 80.8994 61.424C80.8994 61.5093 80.894 61.5893 80.8834 61.664C80.8727 61.7387 80.8567 61.8027 80.8354 61.856C80.814 61.8987 80.782 61.936 80.7394 61.968C80.6967 61.9893 80.6434 62 80.5794 62ZM80.5781 62V60.864H82.8821L82.3061 61.328V54H83.5541V62H80.5781ZM80.5781 62C80.5141 62 80.4608 61.9893 80.4181 61.968C80.3755 61.936 80.3435 61.8987 80.3221 61.856C80.3008 61.8027 80.2848 61.7387 80.2741 61.664C80.2635 61.5893 80.2581 61.5093 80.2581 61.424C80.2581 61.3067 80.2688 61.2107 80.2901 61.136C80.3008 61.0507 80.3328 60.9867 80.3861 60.944C80.4288 60.8907 80.4928 60.864 80.5781 60.864V62ZM82.3541 50.448V49.088H83.5061V50.448H82.3541ZM81.2021 52.56V51.12H82.4501V52.56H81.2021ZM83.3941 52.56V51.12H84.6421V52.56H83.3941ZM86.3798 62V50.528H87.6118V62H86.3798Z" fill="#04182F"/>
<path d="M44.6668 36C44.2891 36 43.9724 35.8722 43.7168 35.6167C43.4613 35.3611 43.3335 35.0444 43.3335 34.6667V33.3333C42.2224 33.3333 41.2779 32.9444 40.5002 32.1667C39.7224 31.3889 39.3335 30.4444 39.3335 29.3333V22.6667C39.3335 21.5556 39.7224 20.6111 40.5002 19.8333C41.2779 19.0556 42.2224 18.6667 43.3335 18.6667V16C43.3335 14.8889 43.7224 13.9444 44.5002 13.1667C45.2779 12.3889 46.2224 12 47.3335 12H60.6668C61.7779 12 62.7224 12.3889 63.5002 13.1667C64.2779 13.9444 64.6668 14.8889 64.6668 16V18.6667C65.7779 18.6667 66.7224 19.0556 67.5002 19.8333C68.2779 20.6111 68.6668 21.5556 68.6668 22.6667V29.3333C68.6668 30.4444 68.2779 31.3889 67.5002 32.1667C66.7224 32.9444 65.7779 33.3333 64.6668 33.3333V34.6667C64.6668 35.0444 64.5391 35.3611 64.2835 35.6167C64.0279 35.8722 63.7113 36 63.3335 36C62.9557 36 62.6391 35.8722 62.3835 35.6167C62.1279 35.3611 62.0002 35.0444 62.0002 34.6667V33.3333H46.0002V34.6667C46.0002 35.0444 45.8724 35.3611 45.6168 35.6167C45.3613 35.8722 45.0446 36 44.6668 36ZM43.3335 30.6667H64.6668C65.0446 30.6667 65.3613 30.5389 65.6168 30.2833C65.8724 30.0278 66.0002 29.7111 66.0002 29.3333V22.6667C66.0002 22.2889 65.8724 21.9722 65.6168 21.7167C65.3613 21.4611 65.0446 21.3333 64.6668 21.3333C64.2891 21.3333 63.9724 21.4611 63.7168 21.7167C63.4613 21.9722 63.3335 22.2889 63.3335 22.6667V28H44.6668V22.6667C44.6668 22.2889 44.5391 21.9722 44.2835 21.7167C44.0279 21.4611 43.7113 21.3333 43.3335 21.3333C42.9557 21.3333 42.6391 21.4611 42.3835 21.7167C42.1279 21.9722 42.0002 22.2889 42.0002 22.6667V29.3333C42.0002 29.7111 42.1279 30.0278 42.3835 30.2833C42.6391 30.5389 42.9557 30.6667 43.3335 30.6667ZM47.3335 25.3333H60.6668V22.6667C60.6668 22.0667 60.7891 21.5222 61.0335 21.0333C61.2779 20.5444 61.6002 20.1111 62.0002 19.7333V16C62.0002 15.6222 61.8724 15.3056 61.6168 15.05C61.3613 14.7944 61.0446 14.6667 60.6668 14.6667H47.3335C46.9557 14.6667 46.6391 14.7944 46.3835 15.05C46.1279 15.3056 46.0002 15.6222 46.0002 16V19.7333C46.4002 20.1111 46.7224 20.5444 46.9668 21.0333C47.2113 21.5222 47.3335 22.0667 47.3335 22.6667V25.3333Z" fill="#04182F"/>
</svg>
