<svg width="107" height="84" viewBox="0 0 107 84" fill="none" xmlns="http://www.w3.org/2000/svg">
<rect x="0.5" y="0.5" width="106" height="83" rx="7.5" fill="white" stroke="#04182F"/>
<path d="M44.9778 22.6L43.6444 23.3333C43.3333 23.5111 43 23.5556 42.6444 23.4667C42.2889 23.3778 42.0222 23.1778 41.8444 22.8667L39.1778 18.2C39 17.8889 38.9556 17.5556 39.0444 17.2C39.1333 16.8444 39.3333 16.5778 39.6444 16.4L47.3111 12H49.6444C49.8444 12 50.0056 12.0611 50.1278 12.1833C50.25 12.3056 50.3111 12.4667 50.3111 12.6667V13.3333C50.3111 14.0667 50.5722 14.6944 51.0944 15.2167C51.6167 15.7389 52.2444 16 52.9778 16C53.7111 16 54.3389 15.7389 54.8611 15.2167C55.3833 14.6944 55.6444 14.0667 55.6444 13.3333V12.6667C55.6444 12.4667 55.7056 12.3056 55.8278 12.1833C55.95 12.0611 56.1111 12 56.3111 12H58.6444L66.3111 16.4C66.6222 16.5778 66.8222 16.8444 66.9111 17.2C67 17.5556 66.9556 17.8889 66.7778 18.2L64.1111 22.8667C63.9333 23.1778 63.6722 23.3722 63.3278 23.45C62.9833 23.5278 62.6444 23.4778 62.3111 23.3L60.9778 22.6333V34.6667C60.9778 35.0444 60.85 35.3611 60.5944 35.6167C60.3389 35.8722 60.0222 36 59.6444 36H46.3111C45.9333 36 45.6167 35.8722 45.3611 35.6167C45.1056 35.3611 44.9778 35.0444 44.9778 34.6667V22.6ZM47.6444 18.1333V33.3333H58.3111V18.1333L62.4444 20.4L63.8444 18.0667L58.1111 14.7333C57.7778 15.8667 57.15 16.8056 56.2278 17.55C55.3056 18.2944 54.2222 18.6667 52.9778 18.6667C51.7333 18.6667 50.65 18.2944 49.7278 17.55C48.8056 16.8056 48.1778 15.8667 47.8444 14.7333L42.1111 18.0667L43.5111 20.4L47.6444 18.1333Z" fill="#04182F"/>
<path d="M15.208 61C14.28 61 13.5547 60.8613 13.032 60.584C12.52 60.296 12.1573 59.8587 11.944 59.272C11.7413 58.6747 11.64 57.9173 11.64 57C11.64 56.0827 11.7413 55.3307 11.944 54.744C12.1573 54.1467 12.52 53.7093 13.032 53.432C13.5547 53.144 14.28 53 15.208 53H18.52V60.36H17.272V53.592L17.912 54.136H15.208C14.5893 54.136 14.1093 54.2107 13.768 54.36C13.4373 54.5093 13.208 54.792 13.08 55.208C12.952 55.6133 12.888 56.2107 12.888 57C12.888 57.7893 12.952 58.392 13.08 58.808C13.208 59.2133 13.4373 59.4907 13.768 59.64C14.1093 59.7893 14.5893 59.864 15.208 59.864H20.248V61H15.208ZM20.248 61V59.864C20.312 59.864 20.3653 59.88 20.408 59.912C20.4507 59.9333 20.4827 59.9707 20.504 60.024C20.5253 60.0667 20.5413 60.1253 20.552 60.2C20.5627 60.264 20.568 60.3387 20.568 60.424C20.568 60.5093 20.5627 60.5893 20.552 60.664C20.5413 60.7387 20.5253 60.8027 20.504 60.856C20.4827 60.8987 20.4507 60.936 20.408 60.968C20.3653 60.9893 20.312 61 20.248 61ZM13.656 51.56V50.12H14.904V51.56H13.656ZM15.848 51.56V50.12H17.096V51.56H15.848ZM20.25 61V59.864H32.074L30.922 60.904V57.144C30.922 56.472 30.826 55.9173 30.634 55.48C30.4527 55.032 30.1753 54.696 29.802 54.472C29.4393 54.248 28.9807 54.136 28.426 54.136C27.9567 54.136 27.5193 54.216 27.114 54.376C26.7193 54.5253 26.3513 54.728 26.01 54.984C25.6687 55.2293 25.3487 55.5067 25.05 55.816C24.762 56.1147 24.4953 56.4187 24.25 56.728C24.0047 57.0373 23.7807 57.32 23.578 57.576L23.178 56.44C23.4447 56.1093 23.7113 55.7787 23.978 55.448C24.2553 55.1173 24.5433 54.808 24.842 54.52C25.1407 54.2213 25.466 53.96 25.818 53.736C26.1807 53.512 26.5753 53.336 27.002 53.208C27.4287 53.0693 27.9087 53 28.442 53C29.1993 53 29.818 53.128 30.298 53.384C30.7887 53.64 31.1673 53.9813 31.434 54.408C31.7113 54.824 31.9033 55.272 32.01 55.752C32.1167 56.232 32.17 56.696 32.17 57.144V61H20.25ZM22.522 59.864V53H23.77V59.864H22.522ZM20.25 61C20.186 61 20.1327 60.9893 20.09 60.968C20.0473 60.936 20.0153 60.8987 19.994 60.856C19.9727 60.8027 19.9567 60.7387 19.946 60.664C19.9353 60.5893 19.93 60.5093 19.93 60.424C19.93 60.3067 19.9407 60.2107 19.962 60.136C19.9727 60.0507 20.0047 59.9867 20.058 59.944C20.1007 59.8907 20.1647 59.864 20.25 59.864V61ZM26.89 51.576V50.136H28.138V51.576H26.89ZM40.895 61V59.864H42.623V61H40.895ZM37.103 64.536C36.7297 64.536 36.3297 64.504 35.903 64.44C35.487 64.3867 35.0283 64.3067 34.527 64.2L34.719 63.192C35.2843 63.2667 35.7537 63.32 36.127 63.352C36.511 63.384 36.8363 63.4 37.103 63.4C37.9883 63.4 38.6337 63.2293 39.039 62.888C39.4443 62.5573 39.647 62.072 39.647 61.432V53.72L40.287 54.136H37.583C36.9643 54.136 36.4843 54.2107 36.143 54.36C35.8123 54.5093 35.583 54.792 35.455 55.208C35.327 55.6133 35.263 56.2107 35.263 57C35.263 57.7893 35.327 58.392 35.455 58.808C35.583 59.2133 35.8123 59.4907 36.143 59.64C36.4843 59.7893 36.9643 59.864 37.583 59.864H39.647V61H37.583C36.655 61 35.9297 60.8613 35.407 60.584C34.895 60.296 34.5323 59.8587 34.319 59.272C34.1163 58.6747 34.015 57.9173 34.015 57C34.015 56.0827 34.1163 55.3307 34.319 54.744C34.5323 54.1467 34.895 53.7093 35.407 53.432C35.9297 53.144 36.655 53 37.583 53H40.895V61.416C40.895 62.0773 40.7403 62.6427 40.431 63.112C40.1323 63.5813 39.7003 63.9333 39.135 64.168C38.5697 64.4133 37.8923 64.536 37.103 64.536ZM42.623 61V59.864C42.687 59.864 42.7403 59.88 42.783 59.912C42.8257 59.9333 42.8577 59.9707 42.879 60.024C42.9003 60.0667 42.9163 60.1253 42.927 60.2C42.9377 60.264 42.943 60.3387 42.943 60.424C42.943 60.5093 42.9377 60.5893 42.927 60.664C42.9163 60.7387 42.9003 60.8027 42.879 60.856C42.8577 60.8987 42.8257 60.936 42.783 60.968C42.7403 60.9893 42.687 61 42.623 61ZM42.625 61V59.864H51.377L50.449 60.52V57.08C50.449 56.3333 50.3637 55.7467 50.193 55.32C50.0223 54.8933 49.729 54.5893 49.313 54.408C48.9077 54.2267 48.353 54.136 47.649 54.136C47.201 54.136 46.753 54.168 46.305 54.232C45.8677 54.296 45.5263 54.3813 45.281 54.488L46.033 53.72C45.969 53.976 45.905 54.3013 45.841 54.696C45.777 55.08 45.7237 55.496 45.681 55.944C45.6383 56.392 45.617 56.84 45.617 57.288C45.617 57.7467 45.6383 58.1947 45.681 58.632C45.7237 59.0693 45.7717 59.448 45.825 59.768C45.8783 60.088 45.921 60.312 45.953 60.44L44.769 60.776C44.7263 60.6373 44.673 60.3973 44.609 60.056C44.5557 59.7147 44.5023 59.304 44.449 58.824C44.4063 58.344 44.385 57.832 44.385 57.288C44.385 56.7653 44.4063 56.2587 44.449 55.768C44.5023 55.2667 44.561 54.8133 44.625 54.408C44.6997 54.0027 44.769 53.6773 44.833 53.432C45.0677 53.336 45.441 53.24 45.953 53.144C46.465 53.048 47.0303 53 47.649 53C48.545 53 49.2917 53.1333 49.889 53.4C50.497 53.6667 50.9503 54.0987 51.249 54.696C51.5477 55.2827 51.697 56.0773 51.697 57.08V61H42.625ZM42.625 61C42.561 61 42.5077 60.9893 42.465 60.968C42.4223 60.936 42.3903 60.8987 42.369 60.856C42.3477 60.8027 42.3317 60.7387 42.321 60.664C42.3103 60.5893 42.305 60.5093 42.305 60.424C42.305 60.3067 42.3157 60.2107 42.337 60.136C42.3477 60.0507 42.3797 59.9867 42.433 59.944C42.4757 59.8907 42.5397 59.864 42.625 59.864V61ZM56.6186 64.536C56.2453 64.536 55.8453 64.504 55.4186 64.44C55.0026 64.3867 54.544 64.3067 54.0426 64.2L54.2346 63.192C54.8 63.2667 55.2693 63.32 55.6426 63.352C56.0266 63.384 56.352 63.4 56.6186 63.4C57.504 63.4 58.1493 63.2293 58.5546 62.888C58.96 62.5573 59.1626 62.072 59.1626 61.432V53.72L59.8026 54.136H57.0986C56.48 54.136 56 54.2107 55.6586 54.36C55.328 54.5093 55.0986 54.792 54.9706 55.208C54.8426 55.6133 54.7786 56.2107 54.7786 57C54.7786 57.7893 54.8426 58.392 54.9706 58.808C55.0986 59.2133 55.328 59.4907 55.6586 59.64C56 59.7893 56.48 59.864 57.0986 59.864H59.1626V61H57.0986C56.1706 61 55.4453 60.8613 54.9226 60.584C54.4106 60.296 54.048 59.8587 53.8346 59.272C53.632 58.6747 53.5306 57.9173 53.5306 57C53.5306 56.0827 53.632 55.3307 53.8346 54.744C54.048 54.1467 54.4106 53.7093 54.9226 53.432C55.4453 53.144 56.1706 53 57.0986 53H60.4106V61.416C60.4106 62.0773 60.256 62.6427 59.9466 63.112C59.648 63.5813 59.216 63.9333 58.6506 64.168C58.0853 64.4133 57.408 64.536 56.6186 64.536ZM67.797 60.776C67.3703 60.296 67.0503 59.816 66.837 59.336C66.6343 58.856 66.533 58.344 66.533 57.8C66.533 57.2667 66.629 56.776 66.821 56.328C67.013 55.88 67.2797 55.496 67.621 55.176C67.9623 54.8453 68.357 54.5893 68.805 54.408C69.2637 54.2267 69.7543 54.136 70.277 54.136C70.6717 54.136 71.0503 54.1893 71.413 54.296C71.7863 54.4027 72.1223 54.552 72.421 54.744L71.733 55.688C71.509 55.5387 71.2797 55.432 71.045 55.368C70.821 55.304 70.5703 55.272 70.293 55.272C69.8023 55.272 69.365 55.384 68.981 55.608C68.6077 55.8213 68.309 56.12 68.085 56.504C67.8717 56.8773 67.765 57.3093 67.765 57.8C67.765 58.1947 67.8397 58.5733 67.989 58.936C68.149 59.288 68.3943 59.6507 68.725 60.024L67.797 60.776ZM65.765 61V59.864H73.173V61H65.765ZM76.5961 61V59.864H78.5481V61H76.5961ZM75.3641 61V49.528H76.5961V61H75.3641ZM78.5481 61V59.864C78.6121 59.864 78.6655 59.88 78.7081 59.912C78.7508 59.9333 78.7828 59.9707 78.8041 60.024C78.8255 60.0667 78.8415 60.1253 78.8521 60.2C78.8628 60.264 78.8681 60.3387 78.8681 60.424C78.8681 60.5093 78.8628 60.5893 78.8521 60.664C78.8415 60.7387 78.8255 60.8027 78.8041 60.856C78.7828 60.8987 78.7508 60.936 78.7081 60.968C78.6655 60.9893 78.6121 61 78.5481 61ZM78.5469 61V59.864H80.8509L80.2749 60.328V53H81.5229V61H78.5469ZM78.5469 61C78.4829 61 78.4295 60.9893 78.3869 60.968C78.3442 60.936 78.3122 60.8987 78.2909 60.856C78.2695 60.8027 78.2535 60.7387 78.2429 60.664C78.2322 60.5893 78.2269 60.5093 78.2269 60.424C78.2269 60.3067 78.2375 60.2107 78.2589 60.136C78.2695 60.0507 78.3015 59.9867 78.3549 59.944C78.3975 59.8907 78.4615 59.864 78.5469 59.864V61ZM79.1869 63.88V62.44H80.4349V63.88H79.1869ZM81.3789 63.88V62.44H82.6269V63.88H81.3789ZM84.2378 64.536C84.0991 64.536 83.9551 64.5253 83.8057 64.504C83.6457 64.4933 83.4911 64.4827 83.3417 64.472L83.4857 63.336C83.6351 63.3467 83.7737 63.3573 83.9017 63.368C84.0297 63.3893 84.1418 63.4 84.2378 63.4C84.7391 63.4 85.1444 63.208 85.4538 62.824C85.7631 62.4507 85.9178 61.928 85.9178 61.256V53H87.1658V61.256C87.1658 61.9067 87.0378 62.4773 86.7818 62.968C86.5364 63.4693 86.1951 63.8533 85.7578 64.12C85.3204 64.3973 84.8138 64.536 84.2378 64.536ZM85.9178 51.56V50.12H87.1658V51.56H85.9178ZM89.8329 61V49.528H91.0649V61H89.8329Z" fill="#04182F"/>
</svg>
