<svg width="107" height="84" viewBox="0 0 107 84" fill="none" xmlns="http://www.w3.org/2000/svg">
<rect x="0.5" y="0.5" width="106" height="83" rx="7.5" fill="white" stroke="#04182F"/>
<g clip-path="url(#clip0_217_370)">
<path fill-rule="evenodd" clip-rule="evenodd" d="M43.011 9.17745C43.8915 9.17745 44.6288 9.84442 44.7167 10.7205L45.367 17.1971H62.6229C63.1598 17.1777 63.6933 17.2909 64.1762 17.5267C64.6661 17.7659 65.0882 18.1237 65.4046 18.5675C65.7065 18.9859 65.9056 19.4698 65.9849 19.9798C66.0645 20.4916 66.0215 21.015 65.8592 21.5069L65.8583 21.5096L63.0279 30.0218L63.0267 30.0254C62.7991 30.7024 62.3563 31.2864 61.7657 31.688C61.184 32.0834 60.4907 32.2807 59.7888 32.2512H46.4143C45.628 32.2583 44.8654 31.9819 44.2661 31.4727C43.665 30.9618 43.2688 30.2508 43.1506 29.4709C43.1477 29.4519 43.1453 29.4329 43.1434 29.4139L42.0411 18.4543C42.0371 18.4141 42.0352 18.3739 42.0354 18.3338L41.4603 12.606H37.6909C36.7441 12.606 35.9766 11.8385 35.9766 10.8917C35.9766 9.94496 36.7441 9.17745 37.6909 9.17745H43.011ZM59.3529 35.6155C60.8398 35.6155 62.0453 36.8208 62.0453 38.3077C62.0453 39.7945 60.8398 41 59.3529 41C57.8661 41 56.6607 39.7945 56.6607 38.3077C56.6607 36.8208 57.8661 35.6155 59.3529 35.6155ZM50.2829 38.3077C50.2829 36.8208 49.0776 35.6155 47.5907 35.6155C46.1038 35.6155 44.8984 36.8208 44.8984 38.3077C44.8984 39.7945 46.1038 41 47.5907 41C49.0776 41 50.2829 39.7945 50.2829 38.3077ZM53.9984 20.5731C53.2095 20.5731 52.5699 21.2127 52.5699 22.0017V23.5714H51C50.211 23.5714 49.5714 24.211 49.5714 25C49.5714 25.789 50.211 26.4286 51 26.4286H52.5699V27.9984C52.5699 28.7874 53.2095 29.427 53.9984 29.427C54.7874 29.427 55.427 28.7874 55.427 27.9984V26.4286H56.9968C57.7858 26.4286 58.4254 25.789 58.4254 25C58.4254 24.211 57.7858 23.5714 56.9968 23.5714H55.427V22.0017C55.427 21.2127 54.7874 20.5731 53.9984 20.5731Z" fill="#04182F"/>
</g>
<path d="M13.208 61C12.28 61 11.5547 60.8613 11.032 60.584C10.52 60.296 10.1573 59.8587 9.944 59.272C9.74133 58.6747 9.64 57.9173 9.64 57C9.64 56.0827 9.74133 55.3307 9.944 54.744C10.1573 54.1467 10.52 53.7093 11.032 53.432C11.5547 53.144 12.28 53 13.208 53H16.52V60.36H15.272V53.592L15.912 54.136H13.208C12.5893 54.136 12.1093 54.2107 11.768 54.36C11.4373 54.5093 11.208 54.792 11.08 55.208C10.952 55.6133 10.888 56.2107 10.888 57C10.888 57.7893 10.952 58.392 11.08 58.808C11.208 59.2133 11.4373 59.4907 11.768 59.64C12.1093 59.7893 12.5893 59.864 13.208 59.864H18.248V61H13.208ZM18.248 61V59.864C18.312 59.864 18.3653 59.88 18.408 59.912C18.4507 59.9333 18.4827 59.9707 18.504 60.024C18.5253 60.0667 18.5413 60.1253 18.552 60.2C18.5627 60.264 18.568 60.3387 18.568 60.424C18.568 60.5093 18.5627 60.5893 18.552 60.664C18.5413 60.7387 18.5253 60.8027 18.504 60.856C18.4827 60.8987 18.4507 60.936 18.408 60.968C18.3653 60.9893 18.312 61 18.248 61ZM11.656 51.56V50.12H12.904V51.56H11.656ZM13.848 51.56V50.12H15.096V51.56H13.848ZM18.25 61V59.864H20.554L19.978 60.328V53H21.226V61H18.25ZM18.25 61C18.186 61 18.1327 60.9893 18.09 60.968C18.0473 60.936 18.0153 60.8987 17.994 60.856C17.9727 60.8027 17.9567 60.7387 17.946 60.664C17.9353 60.5893 17.93 60.5093 17.93 60.424C17.93 60.3067 17.9407 60.2107 17.962 60.136C17.9727 60.0507 18.0047 59.9867 18.058 59.944C18.1007 59.8907 18.1647 59.864 18.25 59.864V61ZM18.89 63.88V62.44H20.138V63.88H18.89ZM21.082 63.88V62.44H22.33V63.88H21.082ZM23.9409 64.536C23.8022 64.536 23.6582 64.5253 23.5089 64.504C23.3489 64.4933 23.1942 64.4827 23.0449 64.472L23.1889 63.336C23.3382 63.3467 23.4769 63.3573 23.6049 63.368C23.7329 63.3893 23.8449 63.4 23.9409 63.4C24.4422 63.4 24.8475 63.208 25.1569 62.824C25.4662 62.4507 25.6209 61.928 25.6209 61.256V53H26.8689V61.256C26.8689 61.9067 26.7409 62.4773 26.4849 62.968C26.2395 63.4693 25.8982 63.8533 25.4609 64.12C25.0235 64.3973 24.5169 64.536 23.9409 64.536ZM30.768 61V59.864H32.72V61H30.768ZM29.536 61V49.528H30.768V61H29.536ZM32.72 61V59.864C32.784 59.864 32.8373 59.88 32.88 59.912C32.9227 59.9333 32.9547 59.9707 32.976 60.024C32.9973 60.0667 33.0133 60.1253 33.024 60.2C33.0347 60.264 33.04 60.3387 33.04 60.424C33.04 60.5093 33.0347 60.5893 33.024 60.664C33.0133 60.7387 32.9973 60.8027 32.976 60.856C32.9547 60.8987 32.9227 60.936 32.88 60.968C32.8373 60.9893 32.784 61 32.72 61ZM40.6388 61V59.864H42.3668V61H40.6388ZM32.7188 61C32.6547 61 32.6014 60.9893 32.5587 60.968C32.5161 60.936 32.4841 60.8987 32.4627 60.856C32.4414 60.8027 32.4254 60.7387 32.4147 60.664C32.4041 60.5893 32.3987 60.5093 32.3987 60.424C32.3987 60.3067 32.4094 60.2107 32.4307 60.136C32.4414 60.0507 32.4734 59.9867 32.5267 59.944C32.5694 59.8907 32.6334 59.864 32.7188 59.864V61ZM32.7188 61V59.864H39.7748L39.3908 60.2V56.232C39.3908 55.5387 39.1721 55.0213 38.7348 54.68C38.3081 54.328 37.6521 54.152 36.7668 54.152C36.4894 54.152 36.0894 54.1787 35.5668 54.232C35.0441 54.2747 34.4948 54.3387 33.9188 54.424L33.7747 53.4C34.2121 53.2933 34.6921 53.2027 35.2148 53.128C35.7374 53.0427 36.2441 53 36.7348 53C37.5454 53 38.2388 53.128 38.8148 53.384C39.4014 53.6293 39.8494 53.992 40.1588 54.472C40.4788 54.952 40.6388 55.5387 40.6388 56.232V61H32.7188ZM42.3668 61V59.864C42.4308 59.864 42.4841 59.88 42.5268 59.912C42.5694 59.9333 42.6014 59.9707 42.6228 60.024C42.6441 60.0667 42.6601 60.1253 42.6708 60.2C42.6814 60.264 42.6868 60.3387 42.6868 60.424C42.6868 60.5093 42.6814 60.5893 42.6708 60.664C42.6601 60.7387 42.6441 60.8027 42.6228 60.856C42.6014 60.8987 42.5694 60.936 42.5268 60.968C42.4841 60.9893 42.4308 61 42.3668 61ZM36.1108 63.88V62.44H37.3588V63.88H36.1108ZM42.3594 61V59.864H44.6634L44.0874 60.328V53H45.3354V61H42.3594ZM42.3594 61C42.2954 61 42.242 60.9893 42.1994 60.968C42.1567 60.936 42.1247 60.8987 42.1034 60.856C42.082 60.8027 42.066 60.7387 42.0554 60.664C42.0447 60.5893 42.0394 60.5093 42.0394 60.424C42.0394 60.3067 42.05 60.2107 42.0714 60.136C42.082 60.0507 42.114 59.9867 42.1674 59.944C42.21 59.8907 42.274 59.864 42.3594 59.864V61ZM42.9994 51.56V50.12H44.2474V51.56H42.9994ZM45.1914 51.56V50.12H46.4394V51.56H45.1914ZM55.5326 61C54.4766 61 53.5966 60.8773 52.8926 60.632C52.1886 60.3867 51.6606 60.0133 51.3086 59.512C50.9566 59.0107 50.7806 58.3707 50.7806 57.592C50.7806 57.336 50.7966 57.0587 50.8286 56.76C50.8713 56.4613 50.9193 56.1733 50.9726 55.896C51.026 55.608 51.074 55.3627 51.1166 55.16C51.1593 54.9467 51.186 54.8027 51.1966 54.728L52.4126 54.952C52.3806 55.1227 52.3326 55.3573 52.2686 55.656C52.2153 55.9547 52.162 56.2747 52.1086 56.616C52.0553 56.9573 52.0286 57.2827 52.0286 57.592C52.0286 57.9867 52.0873 58.328 52.2046 58.616C52.3326 58.904 52.53 59.144 52.7966 59.336C53.074 59.5173 53.4366 59.6507 53.8846 59.736C54.3326 59.8213 54.882 59.864 55.5326 59.864H60.2366V53H61.4846V61H55.5326ZM54.4286 53.112V51.672H55.6766V53.112H54.4286ZM56.6206 53.112V51.672H57.8686V53.112H56.6206ZM65.5493 61V59.864H67.5013V61H65.5493ZM64.3173 61V49.528H65.5493V61H64.3173ZM67.5013 61V59.864C67.5653 59.864 67.6186 59.88 67.6613 59.912C67.7039 59.9333 67.7359 59.9707 67.7573 60.024C67.7786 60.0667 67.7946 60.1253 67.8053 60.2C67.8159 60.264 67.8213 60.3387 67.8213 60.424C67.8213 60.5093 67.8159 60.5893 67.8053 60.664C67.7946 60.7387 67.7786 60.8027 67.7573 60.856C67.7359 60.8987 67.7039 60.936 67.6613 60.968C67.6186 60.9893 67.5653 61 67.5013 61ZM67.5 61V59.864H69.804L69.228 60.328V53H70.476V61H67.5ZM67.5 61C67.436 61 67.3827 60.9893 67.34 60.968C67.2973 60.936 67.2653 60.8987 67.244 60.856C67.2227 60.8027 67.2067 60.7387 67.196 60.664C67.1853 60.5893 67.18 60.5093 67.18 60.424C67.18 60.3067 67.1907 60.2107 67.212 60.136C67.2227 60.0507 67.2547 59.9867 67.308 59.944C67.3507 59.8907 67.4147 59.864 67.5 59.864V61ZM69.228 51.56V50.12H70.476V51.56H69.228ZM80.7736 61V59.864H82.5016V61H80.7736ZM72.4056 61V59.864H80.2296L79.5256 60.584V49.528H80.7736V61H72.4056ZM74.9656 59.864V51.8H76.1976V59.864H74.9656ZM82.5016 61V59.864C82.5656 59.864 82.619 59.88 82.6616 59.912C82.7043 59.9333 82.7363 59.9707 82.7576 60.024C82.779 60.0667 82.795 60.1253 82.8056 60.2C82.8163 60.264 82.8216 60.3387 82.8216 60.424C82.8216 60.5093 82.8163 60.5893 82.8056 60.664C82.795 60.7387 82.779 60.8027 82.7576 60.856C82.7363 60.8987 82.7043 60.936 82.6616 60.968C82.619 60.9893 82.5656 61 82.5016 61ZM85.972 60.952C85.396 60.4613 84.9533 59.9013 84.644 59.272C84.3453 58.632 84.196 57.9547 84.196 57.24C84.196 56.632 84.3027 56.072 84.516 55.56C84.7293 55.0373 85.0227 54.584 85.396 54.2C85.7693 53.816 86.212 53.5227 86.724 53.32C87.236 53.1067 87.7853 53 88.372 53C88.6813 53 89.012 53.032 89.364 53.096C89.7267 53.16 90.0733 53.2507 90.404 53.368L89.972 54.44C89.7053 54.344 89.4333 54.2693 89.156 54.216C88.8893 54.1627 88.6333 54.136 88.388 54.136C87.8227 54.136 87.316 54.2693 86.868 54.536C86.42 54.8027 86.068 55.1707 85.812 55.64C85.5667 56.0987 85.444 56.632 85.444 57.24C85.444 57.7947 85.556 58.3173 85.78 58.808C86.0147 59.288 86.3507 59.7147 86.788 60.088L85.972 60.952ZM82.5 61V59.864H90.596V61H82.5ZM82.5 61C82.436 61 82.3827 60.9893 82.34 60.968C82.2973 60.936 82.2653 60.8987 82.244 60.856C82.2227 60.8027 82.2067 60.7387 82.196 60.664C82.1853 60.5893 82.18 60.5093 82.18 60.424C82.18 60.3067 82.1907 60.2107 82.212 60.136C82.2227 60.0507 82.2547 59.9867 82.308 59.944C82.3507 59.8907 82.4147 59.864 82.5 59.864V61ZM93.5048 61V49.528H94.7368V61H93.5048ZM93.3768 65.304C93.2061 65.0907 93.0728 64.8827 92.9768 64.68C92.8914 64.4773 92.8488 64.264 92.8488 64.04C92.8488 63.7307 92.9234 63.4533 93.0728 63.208C93.2328 62.9627 93.4408 62.7707 93.6968 62.632C93.9528 62.4933 94.2301 62.424 94.5288 62.424C94.6994 62.424 94.8701 62.4453 95.0408 62.488C95.2114 62.5413 95.3608 62.6107 95.4888 62.696L95.0728 63.416C94.9874 63.3627 94.9021 63.3253 94.8168 63.304C94.7421 63.2933 94.6621 63.288 94.5768 63.288C94.3314 63.288 94.1341 63.3573 93.9848 63.496C93.8461 63.6347 93.7768 63.816 93.7768 64.04C93.7768 64.1787 93.8034 64.312 93.8568 64.44C93.9208 64.568 94.0114 64.7067 94.1288 64.856L93.3768 65.304ZM92.5448 65.304V64.456H95.6968V65.304H92.5448Z" fill="#04182F"/>
<defs>
<clipPath id="clip0_217_370">
<rect width="32" height="32" fill="white" transform="translate(35 9)"/>
</clipPath>
</defs>
</svg>
