<svg width="107" height="84" viewBox="0 0 107 84" fill="none" xmlns="http://www.w3.org/2000/svg">
<rect x="0.5" y="0.5" width="106" height="83" rx="7.5" fill="white" stroke="#04182F"/>
<path fill-rule="evenodd" clip-rule="evenodd" d="M45.9999 13C45.9999 12.6844 46.2557 12.4286 46.5713 12.4286H61.4284C61.7441 12.4286 61.9999 12.6844 61.9999 13V37C61.9999 37.3157 61.7441 37.5714 61.4284 37.5714H46.6898C46.6784 37.5666 46.6653 37.5609 46.6504 37.5541C46.545 37.5045 46.4098 37.4213 46.2817 37.3118C46.1523 37.2016 46.0683 37.0976 46.0245 37.0229C46.011 36.9998 46.0036 36.9838 45.9999 36.9744V13ZM46.5713 9C44.3621 9 42.5713 10.7909 42.5713 13V37C42.5713 38.3529 43.397 39.3579 44.057 39.9207C44.4139 40.2249 44.8069 40.4763 45.1949 40.6583C45.5477 40.8238 46.0405 41 46.5713 41H61.4284C63.6376 41 65.4284 39.2091 65.4284 37V13C65.4284 10.7909 63.6376 9 61.4284 9H46.5713ZM52.857 31.2857C51.9102 31.2857 51.1427 32.0533 51.1427 33C51.1427 33.9467 51.9102 34.7143 52.857 34.7143H55.1427C56.0895 34.7143 56.857 33.9467 56.857 33C56.857 32.0533 56.0895 31.2857 55.1427 31.2857H52.857Z" fill="#04182F"/>
<path d="M26.392 63C25.336 63 24.456 62.8773 23.752 62.632C23.048 62.3867 22.52 62.0133 22.168 61.512C21.816 61.0107 21.64 60.3707 21.64 59.592C21.64 59.336 21.656 59.0587 21.688 58.76C21.7307 58.4613 21.7787 58.1733 21.832 57.896C21.8853 57.608 21.9333 57.3627 21.976 57.16C22.0187 56.9467 22.0453 56.8027 22.056 56.728L23.272 56.952C23.24 57.1227 23.192 57.3573 23.128 57.656C23.0747 57.9547 23.0213 58.2747 22.968 58.616C22.9147 58.9573 22.888 59.2827 22.888 59.592C22.888 59.9867 22.9467 60.328 23.064 60.616C23.192 60.904 23.3893 61.144 23.656 61.336C23.9333 61.5173 24.296 61.6507 24.744 61.736C25.192 61.8213 25.7413 61.864 26.392 61.864H31.096V55H32.344V63H26.392ZM25.288 55.112V53.672H26.536V55.112H25.288ZM27.48 55.112V53.672H28.728V55.112H27.48ZM36.4086 63V61.864H38.3606V63H36.4086ZM35.1766 63V51.528H36.4086V63H35.1766ZM38.3606 63V61.864C38.4246 61.864 38.478 61.88 38.5206 61.912C38.5633 61.9333 38.5953 61.9707 38.6166 62.024C38.638 62.0667 38.654 62.1253 38.6646 62.2C38.6753 62.264 38.6806 62.3387 38.6806 62.424C38.6806 62.5093 38.6753 62.5893 38.6646 62.664C38.654 62.7387 38.638 62.8027 38.6166 62.856C38.5953 62.8987 38.5633 62.936 38.5206 62.968C38.478 62.9893 38.4246 63 38.3606 63ZM41.3354 63V61.864H43.0634V63H41.3354ZM43.0634 63V61.864C43.1274 61.864 43.1807 61.88 43.2234 61.912C43.266 61.9333 43.298 61.9707 43.3194 62.024C43.3407 62.0667 43.3567 62.1253 43.3674 62.2C43.378 62.264 43.3834 62.3387 43.3834 62.424C43.3834 62.5093 43.378 62.5893 43.3674 62.664C43.3567 62.7387 43.3407 62.8027 43.3194 62.856C43.298 62.8987 43.266 62.936 43.2234 62.968C43.1807 62.9893 43.1274 63 43.0634 63ZM38.3594 63C38.2954 63 38.242 62.9893 38.1994 62.968C38.1567 62.936 38.1247 62.8987 38.1034 62.856C38.082 62.8027 38.066 62.7387 38.0554 62.664C38.0447 62.5893 38.0394 62.5093 38.0394 62.424C38.0394 62.3067 38.05 62.2107 38.0714 62.136C38.082 62.0507 38.114 61.9867 38.1674 61.944C38.21 61.8907 38.274 61.864 38.3594 61.864V63ZM38.3594 63V61.864H40.6634L40.0874 62.328V55H41.3354V63H38.3594ZM38.9994 65.88V64.44H40.2474V65.88H38.9994ZM41.1914 65.88V64.44H42.4394V65.88H41.1914ZM43.0625 63V61.864H45.3665L44.7905 62.328V55H46.0385V63H43.0625ZM43.0625 63C42.9985 63 42.9452 62.9893 42.9025 62.968C42.8598 62.936 42.8278 62.8987 42.8065 62.856C42.7852 62.8027 42.7692 62.7387 42.7585 62.664C42.7478 62.5893 42.7425 62.5093 42.7425 62.424C42.7425 62.3067 42.7532 62.2107 42.7745 62.136C42.7852 62.0507 42.8172 61.9867 42.8705 61.944C42.9132 61.8907 42.9772 61.864 43.0625 61.864V63ZM44.7905 53.56V52.12H46.0385V53.56H44.7905ZM51.0561 66.536C50.6828 66.536 50.2828 66.504 49.8561 66.44C49.4401 66.3867 48.9815 66.3067 48.4801 66.2L48.6721 65.192C49.2375 65.2667 49.7068 65.32 50.0801 65.352C50.4641 65.384 50.7895 65.4 51.0561 65.4C51.9415 65.4 52.5868 65.2293 52.9921 64.888C53.3975 64.5573 53.6001 64.072 53.6001 63.432V55.72L54.2401 56.136H51.5361C50.9175 56.136 50.4375 56.2107 50.0961 56.36C49.7655 56.5093 49.5361 56.792 49.4081 57.208C49.2801 57.6133 49.2161 58.2107 49.2161 59C49.2161 59.7893 49.2801 60.392 49.4081 60.808C49.5361 61.2133 49.7655 61.4907 50.0961 61.64C50.4375 61.7893 50.9175 61.864 51.5361 61.864H53.6001V63H51.5361C50.6081 63 49.8828 62.8613 49.3601 62.584C48.8481 62.296 48.4855 61.8587 48.2721 61.272C48.0695 60.6747 47.9681 59.9173 47.9681 59C47.9681 58.0827 48.0695 57.3307 48.2721 56.744C48.4855 56.1467 48.8481 55.7093 49.3601 55.432C49.8828 55.144 50.6081 55 51.5361 55H54.8481V63.416C54.8481 64.0773 54.6935 64.6427 54.3841 65.112C54.0855 65.5813 53.6535 65.9333 53.0881 66.168C52.5228 66.4133 51.8455 66.536 51.0561 66.536ZM62.5749 63V55H63.8229V62.328L63.2469 61.864H65.5509V63H62.5749ZM59.1189 57.72V56.568H62.5749V57.72H59.1189ZM56.1909 66.536C56.0522 66.536 55.9082 66.5253 55.7589 66.504C55.5989 66.4933 55.4442 66.4827 55.2949 66.472L55.4389 65.336C55.5882 65.3467 55.7269 65.3573 55.8549 65.368C55.9829 65.3893 56.0949 65.4 56.1909 65.4C56.6922 65.4 57.0975 65.208 57.4069 64.824C57.7162 64.4507 57.8709 63.928 57.8709 63.256V55H59.1189V63.256C59.1189 63.9067 58.9909 64.4773 58.7349 64.968C58.4895 65.4693 58.1482 65.8533 57.7109 66.12C57.2735 66.3973 56.7669 66.536 56.1909 66.536ZM65.5509 63V61.864C65.6149 61.864 65.6682 61.88 65.7109 61.912C65.7535 61.9333 65.7855 61.9707 65.8069 62.024C65.8282 62.0667 65.8442 62.1253 65.8549 62.2C65.8655 62.264 65.8709 62.3387 65.8709 62.424C65.8709 62.5093 65.8655 62.5893 65.8549 62.664C65.8442 62.7387 65.8282 62.8027 65.8069 62.856C65.7855 62.8987 65.7535 62.936 65.7109 62.968C65.6682 62.9893 65.6149 63 65.5509 63ZM61.4869 53.56V52.12H62.7349V53.56H61.4869ZM63.6789 53.56V52.12H64.9269V53.56H63.6789ZM74.3469 63V61.864H76.0749V63H74.3469ZM65.5469 63C65.4829 63 65.4295 62.9893 65.3869 62.968C65.3442 62.936 65.3122 62.8987 65.2909 62.856C65.2695 62.8027 65.2535 62.7387 65.2429 62.664C65.2322 62.5893 65.2269 62.5093 65.2269 62.424C65.2269 62.3067 65.2375 62.2107 65.2589 62.136C65.2695 62.0507 65.3015 61.9867 65.3549 61.944C65.3975 61.8907 65.4615 61.864 65.5469 61.864V63ZM65.5469 63V61.864H73.5469L73.0989 62.264V59.416C73.0989 58.84 73.0189 58.3653 72.8589 57.992C72.7095 57.608 72.4802 57.3253 72.1709 57.144C71.8722 56.952 71.4935 56.856 71.0349 56.856H67.5469L66.6349 55.48L67.3229 54.152C67.4509 53.9173 67.5842 53.6773 67.7229 53.432C67.8615 53.1867 68.0322 52.904 68.2349 52.584C68.4375 52.264 68.6935 51.8747 69.0029 51.416L70.0429 52.04C69.7335 52.5093 69.4829 52.8987 69.2909 53.208C69.0989 53.5173 68.9335 53.784 68.7949 54.008C68.6669 54.232 68.5442 54.456 68.4269 54.68L67.6269 56.216L67.3069 55.72H71.0349C71.7069 55.72 72.2562 55.8373 72.6829 56.072C73.1202 56.296 73.4562 56.5947 73.6909 56.968C73.9362 57.3413 74.1069 57.7467 74.2029 58.184C74.2989 58.6107 74.3469 59.0213 74.3469 59.416V63H65.5469ZM76.0749 63V61.864C76.1389 61.864 76.1922 61.88 76.2349 61.912C76.2775 61.9333 76.3095 61.9707 76.3309 62.024C76.3522 62.0667 76.3682 62.1253 76.3789 62.2C76.3895 62.264 76.3949 62.3387 76.3949 62.424C76.3949 62.5093 76.3895 62.5893 76.3789 62.664C76.3682 62.7387 76.3522 62.8027 76.3309 62.856C76.3095 62.8987 76.2775 62.936 76.2349 62.968C76.1922 62.9893 76.1389 63 76.0749 63ZM78.0141 63V51.528H79.2621V63H78.0141ZM76.0781 63V61.864H78.0141V63H76.0781ZM76.0781 63C76.0141 63 75.9608 62.9893 75.9181 62.968C75.8755 62.936 75.8435 62.8987 75.8221 62.856C75.8008 62.8027 75.7848 62.7387 75.7741 62.664C75.7635 62.5893 75.7581 62.5093 75.7581 62.424C75.7581 62.3067 75.7688 62.2107 75.7901 62.136C75.8008 62.0507 75.8328 61.9867 75.8861 61.944C75.9288 61.8907 75.9928 61.864 76.0781 61.864V63ZM82.0204 63V51.528H83.2524V63H82.0204ZM81.8924 67.304C81.7217 67.0907 81.5884 66.8827 81.4924 66.68C81.407 66.4773 81.3644 66.264 81.3644 66.04C81.3644 65.7307 81.439 65.4533 81.5884 65.208C81.7484 64.9627 81.9564 64.7707 82.2124 64.632C82.4684 64.4933 82.7457 64.424 83.0444 64.424C83.215 64.424 83.3857 64.4453 83.5564 64.488C83.727 64.5413 83.8764 64.6107 84.0044 64.696L83.5884 65.416C83.503 65.3627 83.4177 65.3253 83.3324 65.304C83.2577 65.2933 83.1777 65.288 83.0924 65.288C82.847 65.288 82.6497 65.3573 82.5004 65.496C82.3617 65.6347 82.2924 65.816 82.2924 66.04C82.2924 66.1787 82.319 66.312 82.3724 66.44C82.4364 66.568 82.527 66.7067 82.6444 66.856L81.8924 67.304ZM81.0604 67.304V66.456H84.2124V67.304H81.0604Z" fill="#04182F"/>
</svg>
