<svg width="107" height="84" viewBox="0 0 107 84" fill="none" xmlns="http://www.w3.org/2000/svg">
<rect x="0.5" y="0.5" width="106" height="83" rx="7.5" fill="white" stroke="#04182F"/>
<path d="M44.8667 10.6667V37.3333M44.8667 13.3333H59.8C63.4 13.3333 64.2 15.3333 61.6667 17.8667L60.0667 19.4667C59 20.5333 59 22.2667 60.0667 23.2L61.6667 24.8C64.2 27.3333 63.2667 29.3333 59.8 29.3333H44.8667" stroke="#04182F" stroke-width="1.5" stroke-miterlimit="10" stroke-linecap="round" stroke-linejoin="round"/>
<path d="M36.8149 62V60.864H38.7669V62H36.8149ZM35.5829 62V50.528H36.8149V62H35.5829ZM38.7669 62V60.864C38.8309 60.864 38.8842 60.88 38.9269 60.912C38.9695 60.9333 39.0015 60.9707 39.0229 61.024C39.0442 61.0667 39.0602 61.1253 39.0709 61.2C39.0815 61.264 39.0869 61.3387 39.0869 61.424C39.0869 61.5093 39.0815 61.5893 39.0709 61.664C39.0602 61.7387 39.0442 61.8027 39.0229 61.856C39.0015 61.8987 38.9695 61.936 38.9269 61.968C38.8842 61.9893 38.8309 62 38.7669 62ZM41.7416 62V60.864H43.4696V62H41.7416ZM43.4696 62V60.864C43.5336 60.864 43.587 60.88 43.6296 60.912C43.6723 60.9333 43.7043 60.9707 43.7256 61.024C43.747 61.0667 43.763 61.1253 43.7736 61.2C43.7843 61.264 43.7896 61.3387 43.7896 61.424C43.7896 61.5093 43.7843 61.5893 43.7736 61.664C43.763 61.7387 43.747 61.8027 43.7256 61.856C43.7043 61.8987 43.6723 61.936 43.6296 61.968C43.587 61.9893 43.5336 62 43.4696 62ZM38.7656 62C38.7016 62 38.6483 61.9893 38.6056 61.968C38.563 61.936 38.531 61.8987 38.5096 61.856C38.4883 61.8027 38.4723 61.7387 38.4616 61.664C38.451 61.5893 38.4456 61.5093 38.4456 61.424C38.4456 61.3067 38.4563 61.2107 38.4776 61.136C38.4883 61.0507 38.5203 60.9867 38.5736 60.944C38.6163 60.8907 38.6803 60.864 38.7656 60.864V62ZM38.7656 62V60.864H41.0696L40.4936 61.328V54H41.7416V62H38.7656ZM39.4056 64.88V63.44H40.6536V64.88H39.4056ZM41.5976 64.88V63.44H42.8456V64.88H41.5976ZM43.4688 62V60.864H45.7728L45.1968 61.328V54H46.4448V62H43.4688ZM43.4688 62C43.4047 62 43.3514 61.9893 43.3087 61.968C43.2661 61.936 43.2341 61.8987 43.2127 61.856C43.1914 61.8027 43.1754 61.7387 43.1647 61.664C43.1541 61.5893 43.1487 61.5093 43.1487 61.424C43.1487 61.3067 43.1594 61.2107 43.1807 61.136C43.1914 61.0507 43.2234 60.9867 43.2767 60.944C43.3194 60.8907 43.3834 60.864 43.4688 60.864V62ZM45.1968 52.56V51.12H46.4448V52.56H45.1968ZM50.5024 62V60.864H52.4544V62H50.5024ZM49.2704 62V50.528H50.5024V62H49.2704ZM52.4544 62V60.864C52.5184 60.864 52.5717 60.88 52.6144 60.912C52.657 60.9333 52.689 60.9707 52.7104 61.024C52.7317 61.0667 52.7477 61.1253 52.7584 61.2C52.769 61.264 52.7744 61.3387 52.7744 61.424C52.7744 61.5093 52.769 61.5893 52.7584 61.664C52.7477 61.7387 52.7317 61.8027 52.7104 61.856C52.689 61.8987 52.657 61.936 52.6144 61.968C52.5717 61.9893 52.5184 62 52.4544 62ZM61.5251 62V60.864H63.2531V62H61.5251ZM52.4531 62C52.3891 62 52.3358 61.9893 52.2931 61.968C52.2505 61.936 52.2185 61.8987 52.1971 61.856C52.1758 61.8027 52.1598 61.7387 52.1491 61.664C52.1385 61.5893 52.1331 61.5093 52.1331 61.424C52.1331 61.3067 52.1438 61.2107 52.1651 61.136C52.1758 61.0507 52.2078 60.9867 52.2611 60.944C52.3038 60.8907 52.3678 60.864 52.4531 60.864V62ZM52.4531 62V60.864H61.2051L60.2771 61.52V58.08C60.2771 57.3333 60.1918 56.7467 60.0211 56.32C59.8505 55.8933 59.5571 55.5893 59.1411 55.408C58.7358 55.2267 58.1811 55.136 57.4771 55.136C57.0291 55.136 56.5811 55.168 56.1331 55.232C55.6958 55.296 55.3545 55.3813 55.1091 55.488L55.8611 54.72C55.7971 54.976 55.7331 55.3013 55.6691 55.696C55.6051 56.08 55.5518 56.496 55.5091 56.944C55.4665 57.392 55.4451 57.84 55.4451 58.288C55.4451 58.7467 55.4665 59.1947 55.5091 59.632C55.5518 60.0693 55.5998 60.448 55.6531 60.768C55.7065 61.088 55.7491 61.312 55.7811 61.44L54.5971 61.776C54.5545 61.6373 54.5011 61.3973 54.4371 61.056C54.3838 60.7147 54.3305 60.304 54.2771 59.824C54.2345 59.344 54.2131 58.832 54.2131 58.288C54.2131 57.7653 54.2345 57.2587 54.2771 56.768C54.3305 56.2667 54.3891 55.8133 54.4531 55.408C54.5278 55.0027 54.5971 54.6773 54.6611 54.432C54.8958 54.336 55.2691 54.24 55.7811 54.144C56.2931 54.048 56.8585 54 57.4771 54C58.3731 54 59.1198 54.1333 59.7171 54.4C60.3251 54.6667 60.7785 55.0987 61.0771 55.696C61.3758 56.2827 61.5251 57.0773 61.5251 58.08V62H52.4531ZM63.2531 62V60.864C63.3171 60.864 63.3705 60.88 63.4131 60.912C63.4558 60.9333 63.4878 60.9707 63.5091 61.024C63.5305 61.0667 63.5465 61.1253 63.5571 61.2C63.5678 61.264 63.5731 61.3387 63.5731 61.424C63.5731 61.5093 63.5678 61.5893 63.5571 61.664C63.5465 61.7387 63.5305 61.8027 63.5091 61.856C63.4878 61.8987 63.4558 61.936 63.4131 61.968C63.3705 61.9893 63.3171 62 63.2531 62ZM65.186 62V50.528H66.434V62H65.186ZM63.25 62V60.864H65.186V62H63.25ZM63.25 62C63.186 62 63.1327 61.9893 63.09 61.968C63.0473 61.936 63.0153 61.8987 62.994 61.856C62.9727 61.8027 62.9567 61.7387 62.946 61.664C62.9353 61.5893 62.93 61.5093 62.93 61.424C62.93 61.3067 62.9407 61.2107 62.962 61.136C62.9727 61.0507 63.0047 60.9867 63.058 60.944C63.1007 60.8907 63.1647 60.864 63.25 60.864V62ZM69.1923 62V50.528H70.4243V62H69.1923Z" fill="#04182F"/>
</svg>
