<svg width="107" height="84" viewBox="0 0 107 84" fill="none" xmlns="http://www.w3.org/2000/svg">
<rect x="0.5" y="0.5" width="106" height="83" rx="7.5" fill="white" stroke="#04182F"/>
<path d="M65.3293 39.1363L55.8718 29.6788L59.4993 26.0513L68.9568 35.5088L65.3293 39.1363ZM41.4912 39.1363L37.8637 35.5088L49.7827 23.5897L46.8462 20.6532L45.637 21.8623L43.4345 19.6599V23.2011L42.2254 24.4103L37 19.1849L38.2092 17.9757H41.7503L39.5911 15.8165L45.7233 9.68421C46.2991 9.10841 46.9181 8.69096 47.5803 8.43185C48.2425 8.17274 48.919 8.04318 49.61 8.04318C50.3009 8.04318 50.9775 8.17274 51.6397 8.43185C52.3018 8.69096 52.9208 9.10841 53.4966 9.68421L49.5236 13.6572L51.6829 15.8165L50.4737 17.0256L53.4103 19.9622L57.2969 16.0756C57.1817 15.7589 57.0882 15.4278 57.0162 15.0823C56.9442 14.7368 56.9082 14.3914 56.9082 14.0459C56.9082 12.3473 57.4912 10.915 58.6572 9.74899C59.8232 8.583 61.2555 8 62.9541 8C63.386 8 63.7962 8.04318 64.1849 8.12955C64.5735 8.21592 64.9694 8.34548 65.3725 8.51822L61.0972 12.7935L64.2065 15.9028L68.4818 11.6275C68.6833 12.0306 68.8201 12.4265 68.892 12.8151C68.964 13.2038 69 13.614 69 14.0459C69 15.7445 68.417 17.1768 67.251 18.3428C66.085 19.5088 64.6527 20.0918 62.9541 20.0918C62.6086 20.0918 62.2632 20.063 61.9177 20.0054C61.5722 19.9478 61.2411 19.8471 60.9244 19.7031L41.4912 39.1363Z" fill="#04182F"/>
<path d="M20.2627 62C19.3347 62 18.6094 61.8613 18.0867 61.584C17.5747 61.296 17.212 60.8587 16.9987 60.272C16.796 59.6747 16.6947 58.9173 16.6947 58C16.6947 57.0827 16.796 56.3307 16.9987 55.744C17.212 55.1467 17.5747 54.7093 18.0867 54.432C18.6094 54.144 19.3347 54 20.2627 54H23.5747V61.36H22.3267V54.592L22.9667 55.136H20.2627C19.644 55.136 19.164 55.2107 18.8227 55.36C18.492 55.5093 18.2627 55.792 18.1347 56.208C18.0067 56.6133 17.9427 57.2107 17.9427 58C17.9427 58.7893 18.0067 59.392 18.1347 59.808C18.2627 60.2133 18.492 60.4907 18.8227 60.64C19.164 60.7893 19.644 60.864 20.2627 60.864H25.3027V62H20.2627ZM25.3027 62V60.864C25.3667 60.864 25.42 60.88 25.4627 60.912C25.5054 60.9333 25.5374 60.9707 25.5587 61.024C25.58 61.0667 25.596 61.1253 25.6067 61.2C25.6174 61.264 25.6227 61.3387 25.6227 61.424C25.6227 61.5093 25.6174 61.5893 25.6067 61.664C25.596 61.7387 25.58 61.8027 25.5587 61.856C25.5374 61.8987 25.5054 61.936 25.4627 61.968C25.42 61.9893 25.3667 62 25.3027 62ZM18.7107 52.56V51.12H19.9587V52.56H18.7107ZM20.9027 52.56V51.12H22.1507V52.56H20.9027ZM28.7767 61.952C28.2007 61.4613 27.758 60.9013 27.4487 60.272C27.15 59.632 27.0007 58.9547 27.0007 58.24C27.0007 57.632 27.1074 57.072 27.3207 56.56C27.534 56.0373 27.8274 55.584 28.2007 55.2C28.574 54.816 29.0167 54.5227 29.5287 54.32C30.0407 54.1067 30.59 54 31.1767 54C31.486 54 31.8167 54.032 32.1687 54.096C32.5314 54.16 32.878 54.2507 33.2087 54.368L32.7767 55.44C32.51 55.344 32.238 55.2693 31.9607 55.216C31.694 55.1627 31.438 55.136 31.1927 55.136C30.6274 55.136 30.1207 55.2693 29.6727 55.536C29.2247 55.8027 28.8727 56.1707 28.6167 56.64C28.3714 57.0987 28.2487 57.632 28.2487 58.24C28.2487 58.7947 28.3607 59.3173 28.5847 59.808C28.8194 60.288 29.1554 60.7147 29.5927 61.088L28.7767 61.952ZM25.3047 62V60.864H33.4007V62H25.3047ZM25.3047 62C25.2407 62 25.1874 61.9893 25.1447 61.968C25.102 61.936 25.07 61.8987 25.0487 61.856C25.0274 61.8027 25.0114 61.7387 25.0007 61.664C24.99 61.5893 24.9847 61.5093 24.9847 61.424C24.9847 61.3067 24.9954 61.2107 25.0167 61.136C25.0274 61.0507 25.0594 60.9867 25.1127 60.944C25.1554 60.8907 25.2194 60.864 25.3047 60.864V62ZM37.5414 62V60.864H39.4934V62H37.5414ZM36.3094 62V50.528H37.5414V62H36.3094ZM39.4934 62V60.864C39.5574 60.864 39.6108 60.88 39.6534 60.912C39.6961 60.9333 39.7281 60.9707 39.7494 61.024C39.7708 61.0667 39.7868 61.1253 39.7974 61.2C39.8081 61.264 39.8134 61.3387 39.8134 61.424C39.8134 61.5093 39.8081 61.5893 39.7974 61.664C39.7868 61.7387 39.7708 61.8027 39.7494 61.856C39.7281 61.8987 39.6961 61.936 39.6534 61.968C39.6108 61.9893 39.5574 62 39.4934 62ZM42.4682 62V60.864H44.1962V62H42.4682ZM39.4922 62C39.4282 62 39.3749 61.9893 39.3322 61.968C39.2895 61.936 39.2575 61.8987 39.2362 61.856C39.2149 61.8027 39.1989 61.7387 39.1882 61.664C39.1775 61.5893 39.1722 61.5093 39.1722 61.424C39.1722 61.3067 39.1829 61.2107 39.2042 61.136C39.2149 61.0507 39.2469 60.9867 39.3002 60.944C39.3429 60.8907 39.4069 60.864 39.4922 60.864V62ZM39.4922 62V60.864H41.7962L41.2202 61.328V54H42.4682V62H39.4922ZM44.1962 62V60.864C44.2602 60.864 44.3135 60.88 44.3562 60.912C44.3989 60.9333 44.4309 60.9707 44.4522 61.024C44.4735 61.0667 44.4895 61.1253 44.5002 61.2C44.5109 61.264 44.5162 61.3387 44.5162 61.424C44.5162 61.5093 44.5109 61.5893 44.5002 61.664C44.4895 61.7387 44.4735 61.8027 44.4522 61.856C44.4309 61.8987 44.3989 61.936 44.3562 61.968C44.3135 61.9893 44.2602 62 44.1962 62ZM41.2202 52.56V51.12H42.4682V52.56H41.2202ZM44.1953 62V60.864H56.0193L54.8673 61.904V58.144C54.8673 57.472 54.7713 56.9173 54.5793 56.48C54.398 56.032 54.1206 55.696 53.7473 55.472C53.3846 55.248 52.926 55.136 52.3713 55.136C51.902 55.136 51.4646 55.216 51.0593 55.376C50.6646 55.5253 50.2966 55.728 49.9553 55.984C49.614 56.2293 49.294 56.5067 48.9953 56.816C48.7073 57.1147 48.4406 57.4187 48.1953 57.728C47.95 58.0373 47.726 58.32 47.5233 58.576L47.1233 57.44C47.39 57.1093 47.6566 56.7787 47.9233 56.448C48.2006 56.1173 48.4886 55.808 48.7873 55.52C49.086 55.2213 49.4113 54.96 49.7633 54.736C50.126 54.512 50.5206 54.336 50.9473 54.208C51.374 54.0693 51.854 54 52.3873 54C53.1446 54 53.7633 54.128 54.2433 54.384C54.734 54.64 55.1126 54.9813 55.3793 55.408C55.6566 55.824 55.8486 56.272 55.9553 56.752C56.062 57.232 56.1153 57.696 56.1153 58.144V62H44.1953ZM46.4673 60.864V54H47.7153V60.864H46.4673ZM44.1953 62C44.1313 62 44.078 61.9893 44.0353 61.968C43.9926 61.936 43.9606 61.8987 43.9393 61.856C43.918 61.8027 43.902 61.7387 43.8913 61.664C43.8806 61.5893 43.8753 61.5093 43.8753 61.424C43.8753 61.3067 43.886 61.2107 43.9073 61.136C43.918 61.0507 43.95 60.9867 44.0033 60.944C44.046 60.8907 44.11 60.864 44.1953 60.864V62ZM61.0483 65.536C60.675 65.536 60.275 65.504 59.8483 65.44C59.4323 65.3867 58.9736 65.3067 58.4723 65.2L58.6643 64.192C59.2296 64.2667 59.699 64.32 60.0723 64.352C60.4563 64.384 60.7816 64.4 61.0483 64.4C61.9336 64.4 62.579 64.2293 62.9843 63.888C63.3896 63.5573 63.5923 63.072 63.5923 62.432V54.72L64.2323 55.136H61.5283C60.9096 55.136 60.4296 55.2107 60.0883 55.36C59.7576 55.5093 59.5283 55.792 59.4003 56.208C59.2723 56.6133 59.2083 57.2107 59.2083 58C59.2083 58.7893 59.2723 59.392 59.4003 59.808C59.5283 60.2133 59.7576 60.4907 60.0883 60.64C60.4296 60.7893 60.9096 60.864 61.5283 60.864H63.5923V62H61.5283C60.6003 62 59.875 61.8613 59.3523 61.584C58.8403 61.296 58.4776 60.8587 58.2643 60.272C58.0616 59.6747 57.9603 58.9173 57.9603 58C57.9603 57.0827 58.0616 56.3307 58.2643 55.744C58.4776 55.1467 58.8403 54.7093 59.3523 54.432C59.875 54.144 60.6003 54 61.5283 54H64.8403V62.416C64.8403 63.0773 64.6856 63.6427 64.3763 64.112C64.0776 64.5813 63.6456 64.9333 63.0803 65.168C62.515 65.4133 61.8376 65.536 61.0483 65.536ZM72.2267 61.776C71.8 61.296 71.48 60.816 71.2667 60.336C71.064 59.856 70.9627 59.344 70.9627 58.8C70.9627 58.2667 71.0587 57.776 71.2507 57.328C71.4427 56.88 71.7094 56.496 72.0507 56.176C72.392 55.8453 72.7867 55.5893 73.2347 55.408C73.6934 55.2267 74.184 55.136 74.7067 55.136C75.1014 55.136 75.48 55.1893 75.8427 55.296C76.216 55.4027 76.552 55.552 76.8507 55.744L76.1627 56.688C75.9387 56.5387 75.7094 56.432 75.4747 56.368C75.2507 56.304 75 56.272 74.7227 56.272C74.232 56.272 73.7947 56.384 73.4107 56.608C73.0374 56.8213 72.7387 57.12 72.5147 57.504C72.3014 57.8773 72.1947 58.3093 72.1947 58.8C72.1947 59.1947 72.2694 59.5733 72.4187 59.936C72.5787 60.288 72.824 60.6507 73.1547 61.024L72.2267 61.776ZM70.1947 62V60.864H77.6027V62H70.1947ZM81.0258 62V60.864H82.9778V62H81.0258ZM79.7938 62V50.528H81.0258V62H79.7938ZM82.9778 62V60.864C83.0418 60.864 83.0951 60.88 83.1378 60.912C83.1805 60.9333 83.2125 60.9707 83.2338 61.024C83.2551 61.0667 83.2711 61.1253 83.2818 61.2C83.2925 61.264 83.2978 61.3387 83.2978 61.424C83.2978 61.5093 83.2925 61.5893 83.2818 61.664C83.2711 61.7387 83.2551 61.8027 83.2338 61.856C83.2125 61.8987 83.1805 61.936 83.1378 61.968C83.0951 61.9893 83.0418 62 82.9778 62ZM85.9526 62V60.864H87.6806V62H85.9526ZM82.9766 62C82.9126 62 82.8592 61.9893 82.8166 61.968C82.7739 61.936 82.7419 61.8987 82.7206 61.856C82.6992 61.8027 82.6832 61.7387 82.6726 61.664C82.6619 61.5893 82.6566 61.5093 82.6566 61.424C82.6566 61.3067 82.6672 61.2107 82.6886 61.136C82.6992 61.0507 82.7312 60.9867 82.7846 60.944C82.8272 60.8907 82.8912 60.864 82.9766 60.864V62ZM82.9766 62V60.864H85.2806L84.7046 61.328V54H85.9526V62H82.9766ZM87.6806 62V60.864C87.7446 60.864 87.7979 60.88 87.8406 60.912C87.8832 60.9333 87.9152 60.9707 87.9366 61.024C87.9579 61.0667 87.9739 61.1253 87.9846 61.2C87.9952 61.264 88.0006 61.3387 88.0006 61.424C88.0006 61.5093 87.9952 61.5893 87.9846 61.664C87.9739 61.7387 87.9579 61.8027 87.9366 61.856C87.9152 61.8987 87.8832 61.936 87.8406 61.968C87.7979 61.9893 87.7446 62 87.6806 62ZM84.7046 52.56V51.12H85.9526V52.56H84.7046ZM87.6797 62V60.864H89.9837L89.4077 61.328V54H90.6557V62H87.6797ZM87.6797 62C87.6157 62 87.5624 61.9893 87.5197 61.968C87.477 61.936 87.445 61.8987 87.4237 61.856C87.4024 61.8027 87.3864 61.7387 87.3757 61.664C87.365 61.5893 87.3597 61.5093 87.3597 61.424C87.3597 61.3067 87.3704 61.2107 87.3917 61.136C87.4024 61.0507 87.4344 60.9867 87.4877 60.944C87.5304 60.8907 87.5944 60.864 87.6797 60.864V62ZM89.4077 64.88V63.44H90.6557V64.88H89.4077Z" fill="#04182F"/>
</svg>
