<svg width="107" height="84" viewBox="0 0 107 84" fill="none" xmlns="http://www.w3.org/2000/svg">
<rect x="0.5" y="0.5" width="106" height="83" rx="7.5" fill="white" stroke="#04182F"/>
<path d="M40.208 62C39.28 62 38.5547 61.8613 38.032 61.584C37.52 61.296 37.1573 60.8587 36.944 60.272C36.7413 59.6747 36.64 58.9173 36.64 58C36.64 57.0827 36.7413 56.3307 36.944 55.744C37.1573 55.1467 37.52 54.7093 38.032 54.432C38.5547 54.144 39.28 54 40.208 54H43.52V61.36H42.272V54.592L42.912 55.136H40.208C39.5893 55.136 39.1093 55.2107 38.768 55.36C38.4373 55.5093 38.208 55.792 38.08 56.208C37.952 56.6133 37.888 57.2107 37.888 58C37.888 58.7893 37.952 59.392 38.08 59.808C38.208 60.2133 38.4373 60.4907 38.768 60.64C39.1093 60.7893 39.5893 60.864 40.208 60.864H45.248V62H40.208ZM45.248 62V60.864C45.312 60.864 45.3653 60.88 45.408 60.912C45.4507 60.9333 45.4827 60.9707 45.504 61.024C45.5253 61.0667 45.5413 61.1253 45.552 61.2C45.5627 61.264 45.568 61.3387 45.568 61.424C45.568 61.5093 45.5627 61.5893 45.552 61.664C45.5413 61.7387 45.5253 61.8027 45.504 61.856C45.4827 61.8987 45.4507 61.936 45.408 61.968C45.3653 61.9893 45.312 62 45.248 62ZM48.226 62V60.864H49.954V62H48.226ZM49.954 62V60.864C50.018 60.864 50.0713 60.88 50.114 60.912C50.1567 60.9333 50.1887 60.9707 50.21 61.024C50.2313 61.0667 50.2473 61.1253 50.258 61.2C50.2687 61.264 50.274 61.3387 50.274 61.424C50.274 61.5093 50.2687 61.5893 50.258 61.664C50.2473 61.7387 50.2313 61.8027 50.21 61.856C50.1887 61.8987 50.1567 61.936 50.114 61.968C50.0713 61.9893 50.018 62 49.954 62ZM45.25 62C45.186 62 45.1327 61.9893 45.09 61.968C45.0473 61.936 45.0153 61.8987 44.994 61.856C44.9727 61.8027 44.9567 61.7387 44.946 61.664C44.9353 61.5893 44.93 61.5093 44.93 61.424C44.93 61.3067 44.9407 61.2107 44.962 61.136C44.9727 61.0507 45.0047 60.9867 45.058 60.944C45.1007 60.8907 45.1647 60.864 45.25 60.864V62ZM45.25 62V60.864H47.554L46.978 61.328V54H48.226V62H45.25ZM45.89 64.88V63.44H47.138V64.88H45.89ZM48.082 64.88V63.44H49.33V64.88H48.082ZM49.9531 62V60.864H58.0331L57.2011 61.584V54.592L57.8571 55.136H55.1371C54.5185 55.136 54.0385 55.2107 53.6971 55.36C53.3665 55.5093 53.1371 55.792 53.0091 56.208C52.8811 56.6133 52.8171 57.2107 52.8171 58C52.8171 58.7893 52.8811 59.392 53.0091 59.808C53.1371 60.2133 53.3665 60.4907 53.6971 60.64C54.0385 60.7893 54.5185 60.864 55.1371 60.864V61.68C54.2091 61.68 53.4838 61.568 52.9611 61.344C52.4491 61.1093 52.0865 60.7253 51.8731 60.192C51.6705 59.648 51.5691 58.9173 51.5691 58C51.5691 57.0827 51.6705 56.3307 51.8731 55.744C52.0865 55.1467 52.4491 54.7093 52.9611 54.432C53.4838 54.144 54.2091 54 55.1371 54H58.4491V62H49.9531ZM49.9531 62C49.8891 62 49.8358 61.9893 49.7931 61.968C49.7505 61.936 49.7185 61.8987 49.6971 61.856C49.6758 61.8027 49.6598 61.7387 49.6491 61.664C49.6385 61.5893 49.6331 61.5093 49.6331 61.424C49.6331 61.3067 49.6438 61.2107 49.6651 61.136C49.6758 61.0507 49.7078 60.9867 49.7611 60.944C49.8038 60.8907 49.8678 60.864 49.9531 60.864V62ZM54.7531 52.56V51.12H56.0011V52.56H54.7531ZM62.4239 62V60.864H64.4719V62H62.4239ZM59.8159 65.536C59.6772 65.536 59.5332 65.5253 59.3839 65.504C59.2239 65.4933 59.0692 65.4827 58.9199 65.472L59.0639 64.336C59.2132 64.3467 59.3519 64.3573 59.4799 64.368C59.6079 64.3893 59.7199 64.4 59.8159 64.4C60.3172 64.4 60.7225 64.208 61.0319 63.824C61.3412 63.4507 61.4959 62.928 61.4959 62.256V54H62.7439V62.256C62.7439 62.9067 62.6159 63.4773 62.3599 63.968C62.1145 64.4693 61.7732 64.8533 61.3359 65.12C60.8985 65.3973 60.3919 65.536 59.8159 65.536ZM64.4719 62V60.864C64.5359 60.864 64.5892 60.88 64.6319 60.912C64.6745 60.9333 64.7065 60.9707 64.7279 61.024C64.7492 61.0667 64.7652 61.1253 64.7759 61.2C64.7865 61.264 64.7919 61.3387 64.7919 61.424C64.7919 61.5093 64.7865 61.5893 64.7759 61.664C64.7652 61.7387 64.7492 61.8027 64.7279 61.856C64.7065 61.8987 64.6745 61.936 64.6319 61.968C64.5892 61.9893 64.5359 62 64.4719 62ZM64.4688 62V60.864H66.7728L66.1968 61.328V54H67.4448V62H64.4688ZM64.4688 62C64.4047 62 64.3514 61.9893 64.3087 61.968C64.2661 61.936 64.2341 61.8987 64.2127 61.856C64.1914 61.8027 64.1754 61.7387 64.1647 61.664C64.1541 61.5893 64.1487 61.5093 64.1487 61.424C64.1487 61.3067 64.1594 61.2107 64.1807 61.136C64.1914 61.0507 64.2234 60.9867 64.2767 60.944C64.3194 60.8907 64.3834 60.864 64.4688 60.864V62ZM65.1088 52.56V51.12H66.3568V52.56H65.1088ZM67.3008 52.56V51.12H68.5488V52.56H67.3008Z" fill="#04182F"/>
<path fill-rule="evenodd" clip-rule="evenodd" d="M43.857 8C41.9635 8 40.4285 9.53502 40.4285 11.4286V36.5714C40.4285 38.4649 41.9635 40 43.857 40H62.1428C64.0362 40 65.5713 38.4649 65.5713 36.5714V11.4286C65.5713 9.53502 64.0362 8 62.1428 8H43.857ZM50.3289 14.9843C50.3289 13.5092 51.5247 12.3133 52.9998 12.3133C54.4749 12.3133 55.6707 13.5092 55.6707 14.9843C55.6707 16.4594 54.4749 17.6552 52.9998 17.6552C51.5247 17.6552 50.3289 16.4594 50.3289 14.9843ZM60.5215 28.5715C60.5215 32.7255 57.154 36.0933 52.9998 36.0933C48.8457 36.0933 45.4781 32.7255 45.4781 28.5715C45.4781 24.4173 48.8457 21.0497 52.9998 21.0497C57.154 21.0497 60.5215 24.4173 60.5215 28.5715ZM50.3527 28.5715C50.3527 27.1094 51.5379 25.9243 52.9999 25.9243C54.4619 25.9243 55.6471 27.1094 55.6471 28.5715C55.6471 30.0335 54.4619 31.2187 52.9999 31.2187C51.5379 31.2187 50.3527 30.0335 50.3527 28.5715Z" fill="#04182F"/>
</svg>
