<svg width="107" height="84" viewBox="0 0 107 84" fill="none" xmlns="http://www.w3.org/2000/svg">
<rect x="0.5" y="0.5" width="106" height="83" rx="7.5" fill="white" stroke="#04182F"/>
<path d="M41 23.4C39.88 23.4 38.9333 23.0133 38.16 22.24C37.3867 21.4667 37 20.52 37 19.4C37 18.28 37.3867 17.3333 38.16 16.56C38.9333 15.7867 39.88 15.4 41 15.4C42.12 15.4 43.0667 15.7867 43.84 16.56C44.6133 17.3333 45 18.28 45 19.4C45 20.52 44.6133 21.4667 43.84 22.24C43.0667 23.0133 42.12 23.4 41 23.4ZM48.2 17C47.08 17 46.1333 16.6133 45.36 15.84C44.5867 15.0667 44.2 14.12 44.2 13C44.2 11.88 44.5867 10.9333 45.36 10.16C46.1333 9.38667 47.08 9 48.2 9C49.32 9 50.2667 9.38667 51.04 10.16C51.8133 10.9333 52.2 11.88 52.2 13C52.2 14.12 51.8133 15.0667 51.04 15.84C50.2667 16.6133 49.32 17 48.2 17ZM57.8 17C56.68 17 55.7333 16.6133 54.96 15.84C54.1867 15.0667 53.8 14.12 53.8 13C53.8 11.88 54.1867 10.9333 54.96 10.16C55.7333 9.38667 56.68 9 57.8 9C58.92 9 59.8667 9.38667 60.64 10.16C61.4133 10.9333 61.8 11.88 61.8 13C61.8 14.12 61.4133 15.0667 60.64 15.84C59.8667 16.6133 58.92 17 57.8 17ZM65 23.4C63.88 23.4 62.9333 23.0133 62.16 22.24C61.3867 21.4667 61 20.52 61 19.4C61 18.28 61.3867 17.3333 62.16 16.56C62.9333 15.7867 63.88 15.4 65 15.4C66.12 15.4 67.0667 15.7867 67.84 16.56C68.6133 17.3333 69 18.28 69 19.4C69 20.52 68.6133 21.4667 67.84 22.24C67.0667 23.0133 66.12 23.4 65 23.4ZM44.44 39.4C43.24 39.4 42.2333 38.94 41.42 38.02C40.6067 37.1 40.2 36.0133 40.2 34.76C40.2 33.3733 40.6733 32.16 41.62 31.12C42.5667 30.08 43.5067 29.0533 44.44 28.04C45.2133 27.2133 45.88 26.3133 46.44 25.34C47 24.3667 47.6667 23.4533 48.44 22.6C49.0267 21.9067 49.7067 21.3333 50.48 20.88C51.2533 20.4267 52.0933 20.2 53 20.2C53.9067 20.2 54.7467 20.4133 55.52 20.84C56.2933 21.2667 56.9733 21.8267 57.56 22.52C58.3067 23.3733 58.9667 24.2933 59.54 25.28C60.1133 26.2667 60.7867 27.1867 61.56 28.04C62.4933 29.0533 63.4333 30.08 64.38 31.12C65.3267 32.16 65.8 33.3733 65.8 34.76C65.8 36.0133 65.3933 37.1 64.58 38.02C63.7667 38.94 62.76 39.4 61.56 39.4C60.12 39.4 58.6933 39.28 57.28 39.04C55.8667 38.8 54.44 38.68 53 38.68C51.56 38.68 50.1333 38.8 48.72 39.04C47.3067 39.28 45.88 39.4 44.44 39.4Z" fill="#04182F"/>
<path d="M11.208 61C10.28 61 9.55467 60.8613 9.032 60.584C8.52 60.296 8.15733 59.8587 7.944 59.272C7.74133 58.6747 7.64 57.9173 7.64 57C7.64 56.0827 7.74133 55.3307 7.944 54.744C8.15733 54.1467 8.52 53.7093 9.032 53.432C9.55467 53.144 10.28 53 11.208 53H14.52V60.36H13.272V53.592L13.912 54.136H11.208C10.5893 54.136 10.1093 54.2107 9.768 54.36C9.43733 54.5093 9.208 54.792 9.08 55.208C8.952 55.6133 8.888 56.2107 8.888 57C8.888 57.7893 8.952 58.392 9.08 58.808C9.208 59.2133 9.43733 59.4907 9.768 59.64C10.1093 59.7893 10.5893 59.864 11.208 59.864H16.248V61H11.208ZM16.248 61V59.864C16.312 59.864 16.3653 59.88 16.408 59.912C16.4507 59.9333 16.4827 59.9707 16.504 60.024C16.5253 60.0667 16.5413 60.1253 16.552 60.2C16.5627 60.264 16.568 60.3387 16.568 60.424C16.568 60.5093 16.5627 60.5893 16.552 60.664C16.5413 60.7387 16.5253 60.8027 16.504 60.856C16.4827 60.8987 16.4507 60.936 16.408 60.968C16.3653 60.9893 16.312 61 16.248 61ZM9.656 51.56V50.12H10.904V51.56H9.656ZM11.848 51.56V50.12H13.096V51.56H11.848ZM19.722 60.952C19.146 60.4613 18.7033 59.9013 18.394 59.272C18.0953 58.632 17.946 57.9547 17.946 57.24C17.946 56.632 18.0527 56.072 18.266 55.56C18.4793 55.0373 18.7727 54.584 19.146 54.2C19.5193 53.816 19.962 53.5227 20.474 53.32C20.986 53.1067 21.5353 53 22.122 53C22.4313 53 22.762 53.032 23.114 53.096C23.4767 53.16 23.8233 53.2507 24.154 53.368L23.722 54.44C23.4553 54.344 23.1833 54.2693 22.906 54.216C22.6393 54.1627 22.3833 54.136 22.138 54.136C21.5727 54.136 21.066 54.2693 20.618 54.536C20.17 54.8027 19.818 55.1707 19.562 55.64C19.3167 56.0987 19.194 56.632 19.194 57.24C19.194 57.7947 19.306 58.3173 19.53 58.808C19.7647 59.288 20.1007 59.7147 20.538 60.088L19.722 60.952ZM16.25 61V59.864H24.346V61H16.25ZM16.25 61C16.186 61 16.1327 60.9893 16.09 60.968C16.0473 60.936 16.0153 60.8987 15.994 60.856C15.9727 60.8027 15.9567 60.7387 15.946 60.664C15.9353 60.5893 15.93 60.5093 15.93 60.424C15.93 60.3067 15.9407 60.2107 15.962 60.136C15.9727 60.0507 16.0047 59.9867 16.058 59.944C16.1007 59.8907 16.1647 59.864 16.25 59.864V61ZM27.2548 61V49.528H28.4868V61H27.2548ZM30.1596 64.536C30.021 64.536 29.877 64.5253 29.7276 64.504C29.5676 64.4933 29.413 64.4827 29.2636 64.472L29.4076 63.336C29.557 63.3467 29.6956 63.3573 29.8236 63.368C29.9516 63.3893 30.0636 63.4 30.1596 63.4C30.661 63.4 31.0663 63.208 31.3756 62.824C31.685 62.4507 31.8396 61.928 31.8396 61.256V53H33.0876V61.256C33.0876 61.9067 32.9596 62.4773 32.7036 62.968C32.4583 63.4693 32.117 63.8533 31.6796 64.12C31.2423 64.3973 30.7356 64.536 30.1596 64.536ZM34.3628 64.536C34.2241 64.536 34.0801 64.5253 33.9307 64.504C33.7707 64.4933 33.6161 64.4827 33.4667 64.472L33.6107 63.336C33.7601 63.3467 33.8987 63.3573 34.0267 63.368C34.1547 63.3893 34.2668 63.4 34.3628 63.4C34.8641 63.4 35.2694 63.208 35.5788 62.824C35.8881 62.4507 36.0428 61.928 36.0428 61.256V53H37.2908V61.256C37.2908 61.9067 37.1628 62.4773 36.9068 62.968C36.6614 63.4693 36.3201 63.8533 35.8828 64.12C35.4454 64.3973 34.9388 64.536 34.3628 64.536ZM36.0428 51.56V50.12H37.2908V51.56H36.0428ZM42.1499 64.536C41.7765 64.536 41.3765 64.504 40.9499 64.44C40.5339 64.3867 40.0752 64.3067 39.5739 64.2L39.7659 63.192C40.3312 63.2667 40.8005 63.32 41.1739 63.352C41.5579 63.384 41.8832 63.4 42.1499 63.4C43.0352 63.4 43.6805 63.2293 44.0859 62.888C44.4912 62.5573 44.6939 62.072 44.6939 61.432V53.72L45.3339 54.136H42.6299C42.0112 54.136 41.5312 54.2107 41.1899 54.36C40.8592 54.5093 40.6299 54.792 40.5019 55.208C40.3739 55.6133 40.3099 56.2107 40.3099 57C40.3099 57.7893 40.3739 58.392 40.5019 58.808C40.6299 59.2133 40.8592 59.4907 41.1899 59.64C41.5312 59.7893 42.0112 59.864 42.6299 59.864H44.6939V61H42.6299C41.7019 61 40.9765 60.8613 40.4539 60.584C39.9419 60.296 39.5792 59.8587 39.3659 59.272C39.1632 58.6747 39.0619 57.9173 39.0619 57C39.0619 56.0827 39.1632 55.3307 39.3659 54.744C39.5792 54.1467 39.9419 53.7093 40.4539 53.432C40.9765 53.144 41.7019 53 42.6299 53H45.9419V61.416C45.9419 62.0773 45.7872 62.6427 45.4779 63.112C45.1792 63.5813 44.7472 63.9333 44.1819 64.168C43.6165 64.4133 42.9392 64.536 42.1499 64.536ZM56.0483 61C54.9923 61 54.1123 60.8773 53.4083 60.632C52.7043 60.3867 52.1763 60.0133 51.8243 59.512C51.4723 59.0107 51.2963 58.3707 51.2963 57.592C51.2963 57.336 51.3123 57.0587 51.3443 56.76C51.3869 56.4613 51.4349 56.1733 51.4883 55.896C51.5416 55.608 51.5896 55.3627 51.6323 55.16C51.6749 54.9467 51.7016 54.8027 51.7122 54.728L52.9283 54.952C52.8963 55.1227 52.8483 55.3573 52.7843 55.656C52.7309 55.9547 52.6776 56.2747 52.6243 56.616C52.5709 56.9573 52.5443 57.2827 52.5443 57.592C52.5443 57.9867 52.6029 58.328 52.7203 58.616C52.8483 58.904 53.0456 59.144 53.3123 59.336C53.5896 59.5173 53.9523 59.6507 54.4003 59.736C54.8483 59.8213 55.3976 59.864 56.0483 59.864H60.7523V53H62.0003V61H56.0483ZM54.9443 53.112V51.672H56.1923V53.112H54.9443ZM57.1363 53.112V51.672H58.3843V53.112H57.1363ZM66.0649 61V59.864H68.0169V61H66.0649ZM64.8329 61V49.528H66.0649V61H64.8329ZM68.0169 61V59.864C68.0809 59.864 68.1342 59.88 68.1769 59.912C68.2195 59.9333 68.2515 59.9707 68.2729 60.024C68.2942 60.0667 68.3102 60.1253 68.3209 60.2C68.3315 60.264 68.3369 60.3387 68.3369 60.424C68.3369 60.5093 68.3315 60.5893 68.3209 60.664C68.3102 60.7387 68.2942 60.8027 68.2729 60.856C68.2515 60.8987 68.2195 60.936 68.1769 60.968C68.1342 60.9893 68.0809 61 68.0169 61ZM68.0156 61V59.864H70.3196L69.7436 60.328V53H70.9916V61H68.0156ZM68.0156 61C67.9516 61 67.8983 60.9893 67.8556 60.968C67.813 60.936 67.781 60.8987 67.7596 60.856C67.7383 60.8027 67.7223 60.7387 67.7116 60.664C67.701 60.5893 67.6956 60.5093 67.6956 60.424C67.6956 60.3067 67.7063 60.2107 67.7276 60.136C67.7383 60.0507 67.7703 59.9867 67.8236 59.944C67.8663 59.8907 67.9303 59.864 68.0156 59.864V61ZM69.7436 51.56V50.12H70.9916V51.56H69.7436ZM73.8173 61V49.528H75.0493V61H73.8173ZM84.0981 61V59.864H85.8261V61H84.0981ZM80.3061 64.536C79.9328 64.536 79.5328 64.504 79.1061 64.44C78.6901 64.3867 78.2315 64.3067 77.7301 64.2L77.9221 63.192C78.4875 63.2667 78.9568 63.32 79.3301 63.352C79.7141 63.384 80.0395 63.4 80.3061 63.4C81.1915 63.4 81.8368 63.2293 82.2421 62.888C82.6475 62.5573 82.8501 62.072 82.8501 61.432V53.72L83.4901 54.136H80.7861C80.1675 54.136 79.6875 54.2107 79.3461 54.36C79.0155 54.5093 78.7861 54.792 78.6581 55.208C78.5301 55.6133 78.4661 56.2107 78.4661 57C78.4661 57.7893 78.5301 58.392 78.6581 58.808C78.7861 59.2133 79.0155 59.4907 79.3461 59.64C79.6875 59.7893 80.1675 59.864 80.7861 59.864H82.8501V61H80.7861C79.8581 61 79.1328 60.8613 78.6101 60.584C78.0981 60.296 77.7355 59.8587 77.5221 59.272C77.3195 58.6747 77.2181 57.9173 77.2181 57C77.2181 56.0827 77.3195 55.3307 77.5221 54.744C77.7355 54.1467 78.0981 53.7093 78.6101 53.432C79.1328 53.144 79.8581 53 80.7861 53H84.0981V61.416C84.0981 62.0773 83.9435 62.6427 83.6341 63.112C83.3355 63.5813 82.9035 63.9333 82.3381 64.168C81.7728 64.4133 81.0955 64.536 80.3061 64.536ZM85.8261 61V59.864C85.8901 59.864 85.9435 59.88 85.9861 59.912C86.0288 59.9333 86.0608 59.9707 86.0821 60.024C86.1035 60.0667 86.1195 60.1253 86.1301 60.2C86.1408 60.264 86.1461 60.3387 86.1461 60.424C86.1461 60.5093 86.1408 60.5893 86.1301 60.664C86.1195 60.7387 86.1035 60.8027 86.0821 60.856C86.0608 60.8987 86.0288 60.936 85.9861 60.968C85.9435 60.9893 85.8901 61 85.8261 61ZM88.8041 61V59.864H90.5321V61H88.8041ZM90.5321 61V59.864C90.5961 59.864 90.6495 59.88 90.6921 59.912C90.7348 59.9333 90.7668 59.9707 90.7881 60.024C90.8095 60.0667 90.8255 60.1253 90.8361 60.2C90.8468 60.264 90.8521 60.3387 90.8521 60.424C90.8521 60.5093 90.8468 60.5893 90.8361 60.664C90.8255 60.7387 90.8095 60.8027 90.7881 60.856C90.7668 60.8987 90.7348 60.936 90.6921 60.968C90.6495 60.9893 90.5961 61 90.5321 61ZM85.8281 61C85.7641 61 85.7108 60.9893 85.6681 60.968C85.6255 60.936 85.5935 60.8987 85.5721 60.856C85.5508 60.8027 85.5348 60.7387 85.5241 60.664C85.5135 60.5893 85.5081 60.5093 85.5081 60.424C85.5081 60.3067 85.5188 60.2107 85.5401 60.136C85.5508 60.0507 85.5828 59.9867 85.6361 59.944C85.6788 59.8907 85.7428 59.864 85.8281 59.864V61ZM85.8281 61V59.864H88.1321L87.5561 60.328V53H88.8041V61H85.8281ZM86.4681 63.88V62.44H87.7161V63.88H86.4681ZM88.6601 63.88V62.44H89.9081V63.88H88.6601ZM90.5312 61V59.864H97.5873L97.2033 60.2V56.232C97.2033 55.5387 96.9846 55.0213 96.5473 54.68C96.1206 54.328 95.4646 54.152 94.5793 54.152C94.3019 54.152 93.9019 54.1787 93.3793 54.232C92.8566 54.2747 92.3073 54.3387 91.7313 54.424L91.5872 53.4C92.0246 53.2933 92.5046 53.2027 93.0273 53.128C93.5499 53.0427 94.0566 53 94.5473 53C95.3579 53 96.0513 53.128 96.6273 53.384C97.2139 53.6293 97.6619 53.992 97.9713 54.472C98.2913 54.952 98.4513 55.5387 98.4513 56.232V61H90.5312ZM90.5312 61C90.4672 61 90.4139 60.9893 90.3712 60.968C90.3286 60.936 90.2966 60.8987 90.2752 60.856C90.2539 60.8027 90.2379 60.7387 90.2272 60.664C90.2166 60.5893 90.2112 60.5093 90.2112 60.424C90.2112 60.3067 90.2219 60.2107 90.2432 60.136C90.2539 60.0507 90.2859 59.9867 90.3392 59.944C90.3819 59.8907 90.4459 59.864 90.5312 59.864V61Z" fill="#04182F"/>
</svg>
