<svg width="107" height="84" viewBox="0 0 107 84" fill="none" xmlns="http://www.w3.org/2000/svg">
<rect x="0.5" y="0.5" width="106" height="83" rx="7.5" fill="white" stroke="#04182F"/>
<g clip-path="url(#clip0_217_357)">
<path fill-rule="evenodd" clip-rule="evenodd" d="M40.5358 35.9979V15.5773H65.4675V35.9979C65.4675 36.256 65.2583 36.4654 65.0003 36.4654H41.003C40.7449 36.4654 40.5358 36.256 40.5358 35.9979ZM37.1072 12.0008C37.1072 9.84914 38.8514 8.10491 41.003 8.10491H65.0003C67.1518 8.10491 68.896 9.84914 68.896 12.0008V35.9979C68.896 38.1495 67.1518 39.8939 65.0003 39.8939H41.003C38.8514 39.8939 37.1072 38.1495 37.1072 35.9979V12.0008Z" fill="#04182F"/>
<path d="M51.5452 19.5188C51.05 19.5188 50.6485 19.9203 50.6485 20.4156V23.9819H47.082C46.5868 23.9819 46.1853 24.3834 46.1853 24.8786V27.793C46.1853 28.2882 46.5868 28.6897 47.082 28.6897H50.6484V32.256C50.6484 32.7513 51.0498 33.1527 51.5451 33.1527H54.4595C54.9547 33.1527 55.3562 32.7513 55.3562 32.256L55.3563 28.6897H58.9226C59.4179 28.6897 59.8193 28.2882 59.8193 27.793V24.8786C59.8193 24.3834 59.4179 23.9819 58.9226 23.9819H55.3563V20.4156C55.3563 19.9203 54.9548 19.5188 54.4596 19.5188H51.5452Z" fill="#04182F"/>
</g>
<path d="M35.8608 62C34.8048 62 33.9248 61.8773 33.2208 61.632C32.5168 61.3867 31.9888 61.0133 31.6368 60.512C31.2848 60.0107 31.1088 59.3707 31.1088 58.592C31.1088 58.336 31.1248 58.0587 31.1568 57.76C31.1994 57.4613 31.2474 57.1733 31.3008 56.896C31.3541 56.608 31.4021 56.3627 31.4448 56.16C31.4874 55.9467 31.5141 55.8027 31.5247 55.728L32.7408 55.952C32.7088 56.1227 32.6608 56.3573 32.5968 56.656C32.5434 56.9547 32.4901 57.2747 32.4368 57.616C32.3834 57.9573 32.3568 58.2827 32.3568 58.592C32.3568 58.9867 32.4154 59.328 32.5328 59.616C32.6608 59.904 32.8581 60.144 33.1248 60.336C33.4021 60.5173 33.7648 60.6507 34.2128 60.736C34.6608 60.8213 35.2101 60.864 35.8608 60.864H40.5648V54H41.8128V62H35.8608ZM34.7568 54.112V52.672H36.0048V54.112H34.7568ZM36.9488 54.112V52.672H38.1968V54.112H36.9488ZM45.8774 62V60.864H47.8294V62H45.8774ZM44.6454 62V50.528H45.8774V62H44.6454ZM47.8294 62V60.864C47.8934 60.864 47.9467 60.88 47.9894 60.912C48.032 60.9333 48.064 60.9707 48.0854 61.024C48.1067 61.0667 48.1227 61.1253 48.1334 61.2C48.144 61.264 48.1494 61.3387 48.1494 61.424C48.1494 61.5093 48.144 61.5893 48.1334 61.664C48.1227 61.7387 48.1067 61.8027 48.0854 61.856C48.064 61.8987 48.032 61.936 47.9894 61.968C47.9467 61.9893 47.8934 62 47.8294 62ZM47.8281 62V60.864H56.5801L55.6521 61.52V58.08C55.6521 57.3333 55.5668 56.7467 55.3961 56.32C55.2255 55.8933 54.9321 55.5893 54.5161 55.408C54.1108 55.2267 53.5561 55.136 52.8521 55.136C52.4041 55.136 51.9561 55.168 51.5081 55.232C51.0708 55.296 50.7295 55.3813 50.4841 55.488L51.2361 54.72C51.1721 54.976 51.1081 55.3013 51.0441 55.696C50.9801 56.08 50.9268 56.496 50.8841 56.944C50.8415 57.392 50.8201 57.84 50.8201 58.288C50.8201 58.7467 50.8415 59.1947 50.8841 59.632C50.9268 60.0693 50.9748 60.448 51.0281 60.768C51.0815 61.088 51.1241 61.312 51.1561 61.44L49.9721 61.776C49.9295 61.6373 49.8761 61.3973 49.8121 61.056C49.7588 60.7147 49.7055 60.304 49.6521 59.824C49.6095 59.344 49.5881 58.832 49.5881 58.288C49.5881 57.7653 49.6095 57.2587 49.6521 56.768C49.7055 56.2667 49.7641 55.8133 49.8281 55.408C49.9028 55.0027 49.9721 54.6773 50.0361 54.432C50.2708 54.336 50.6441 54.24 51.1561 54.144C51.6681 54.048 52.2335 54 52.8521 54C53.7481 54 54.4948 54.1333 55.0921 54.4C55.7001 54.6667 56.1535 55.0987 56.4521 55.696C56.7508 56.2827 56.9001 57.0773 56.9001 58.08V62H47.8281ZM47.8281 62C47.7641 62 47.7108 61.9893 47.6681 61.968C47.6255 61.936 47.5935 61.8987 47.5721 61.856C47.5508 61.8027 47.5348 61.7387 47.5241 61.664C47.5135 61.5893 47.5081 61.5093 47.5081 61.424C47.5081 61.3067 47.5188 61.2107 47.5401 61.136C47.5508 61.0507 47.5828 60.9867 47.6361 60.944C47.6788 60.8907 47.7428 60.864 47.8281 60.864V62ZM64.9258 62V60.864H66.6538V62H64.9258ZM58.7338 62V60.864H64.7018L63.6778 61.776V58.288C63.6778 57.4987 63.5871 56.8747 63.4058 56.416C63.2244 55.9573 62.9258 55.632 62.5098 55.44C62.1044 55.2373 61.5551 55.136 60.8618 55.136H59.5658V54H60.8618C61.7151 54 62.4458 54.1333 63.0538 54.4C63.6618 54.6667 64.1258 55.1147 64.4458 55.744C64.7658 56.3627 64.9258 57.2107 64.9258 58.288V62H58.7338ZM66.6538 62V60.864C66.7178 60.864 66.7711 60.88 66.8138 60.912C66.8564 60.9333 66.8884 60.9707 66.9097 61.024C66.9311 61.0667 66.9471 61.1253 66.9578 61.2C66.9684 61.264 66.9738 61.3387 66.9738 61.424C66.9738 61.5093 66.9684 61.5893 66.9578 61.664C66.9471 61.7387 66.9311 61.8027 66.9097 61.856C66.8884 61.8987 66.8564 61.936 66.8138 61.968C66.7711 61.9893 66.7178 62 66.6538 62ZM66.6562 62V60.864H73.7123L73.3283 61.2V57.232C73.3283 56.5387 73.1096 56.0213 72.6723 55.68C72.2456 55.328 71.5896 55.152 70.7043 55.152C70.4269 55.152 70.0269 55.1787 69.5043 55.232C68.9816 55.2747 68.4323 55.3387 67.8563 55.424L67.7122 54.4C68.1496 54.2933 68.6296 54.2027 69.1523 54.128C69.6749 54.0427 70.1816 54 70.6723 54C71.4829 54 72.1763 54.128 72.7523 54.384C73.3389 54.6293 73.7869 54.992 74.0963 55.472C74.4163 55.952 74.5763 56.5387 74.5763 57.232V62H66.6562ZM66.6562 62C66.5922 62 66.5389 61.9893 66.4962 61.968C66.4536 61.936 66.4216 61.8987 66.4002 61.856C66.3789 61.8027 66.3629 61.7387 66.3522 61.664C66.3416 61.5893 66.3362 61.5093 66.3362 61.424C66.3362 61.3067 66.3469 61.2107 66.3682 61.136C66.3789 61.0507 66.4109 60.9867 66.4642 60.944C66.5069 60.8907 66.5709 60.864 66.6562 60.864V62ZM70.0483 52.896V51.456H71.2963V52.896H70.0483Z" fill="#04182F"/>
<defs>
<clipPath id="clip0_217_357">
<rect width="32" height="32" fill="white" transform="translate(37 8)"/>
</clipPath>
</defs>
</svg>
