<?xml version="1.0" standalone="no"?>
<!DOCTYPE svg PUBLIC "-//W3C//DTD SVG 20010904//EN"
 "http://www.w3.org/TR/2001/REC-SVG-20010904/DTD/svg10.dtd">
<svg version="1.0" xmlns="http://www.w3.org/2000/svg"
 width="100.000000pt" height="100.000000pt" viewBox="0 0 100.000000 100.000000"
 preserveAspectRatio="xMidYMid meet">
<metadata>
Created by potrace 1.16, written by Peter Selinger 2001-2019
</metadata>
<g transform="translate(0.000000,100.000000) scale(0.100000,-0.100000)"
fill="#000000" stroke="none">
<path d="M367 894 c-4 -4 -7 -36 -7 -71 l0 -63 -168 0 c-117 0 -172 -4 -180
-12 -17 -17 -17 -719 0 -736 17 -17 959 -17 976 0 17 17 17 719 0 736 -8 8
-63 12 -180 12 l-167 0 -3 68 -3 67 -131 3 c-71 1 -133 -1 -137 -4z m231 -86
l3 -48 -100 0 -101 0 0 50 0 51 98 -3 97 -3 3 -47z m352 -107 c14 -27 14 -615
0 -642 -10 -18 -26 -19 -450 -19 -424 0 -440 1 -450 19 -14 27 -14 615 0 642
10 18 26 19 450 19 424 0 440 -1 450 -19z"/>
<path d="M449 611 c-25 -25 -29 -37 -29 -81 0 -44 4 -56 29 -81 25 -25 37 -29
81 -29 44 0 56 4 81 29 25 25 29 37 29 81 0 74 -36 110 -110 110 -44 0 -56 -4
-81 -29z"/>
<path d="M695 415 c-131 -52 -145 -60 -145 -84 0 -34 43 -132 62 -142 14 -8
47 1 143 37 165 62 163 60 147 121 -19 70 -44 108 -72 110 -14 1 -74 -18 -135
-42z m160 -93 c-4 -5 -209 -82 -217 -82 -8 0 -33 78 -27 84 2 2 51 22 109 44
l105 39 16 -41 c9 -23 16 -42 14 -44z"/>
</g>
</svg>
