<svg width="107" height="84" viewBox="0 0 107 84" fill="none" xmlns="http://www.w3.org/2000/svg">
<rect x="0.5" y="0.5" width="106" height="83" rx="7.5" fill="white" stroke="#04182F"/>
<path d="M39.6665 36.5833C39.2523 36.5833 38.9165 36.9191 38.9165 37.3333C38.9165 37.7476 39.2523 38.0833 39.6665 38.0833V36.5833ZM66.3332 38.0833C66.7474 38.0833 67.0832 37.7476 67.0832 37.3333C67.0832 36.9191 66.7474 36.5833 66.3332 36.5833V38.0833ZM40.9998 21.2933L41.7498 21.2964V21.2933H40.9998ZM42.0265 19.2001L41.5657 18.6083L41.561 18.612L42.0265 19.2001ZM51.3598 11.9334L50.8994 11.3414L50.8991 11.3416L51.3598 11.9334ZM54.6398 11.9334L55.1001 11.3412L55.0963 11.3383L54.6398 11.9334ZM63.9732 19.1867L63.513 19.7789L63.5136 19.7794L63.9732 19.1867ZM49.6665 37.3333H48.9165C48.9165 37.7476 49.2523 38.0833 49.6665 38.0833V37.3333ZM56.3332 37.3333V38.0833C56.7474 38.0833 57.0832 37.7476 57.0832 37.3333H56.3332ZM61.5832 17.3408C61.5874 17.755 61.9265 18.0874 62.3407 18.0833C62.7549 18.0792 63.0873 17.74 63.0831 17.3258L61.5832 17.3408ZM62.2932 13.3333L63.0431 13.3258C63.039 12.9146 62.7045 12.5833 62.2932 12.5833V13.3333ZM56.4265 12.5833C56.0123 12.5833 55.6765 12.9191 55.6765 13.3333C55.6765 13.7475 56.0123 14.0833 56.4265 14.0833V12.5833ZM39.6665 38.0833H66.3332V36.5833H39.6665V38.0833ZM41.6832 37.3365L41.7498 21.2964L40.2498 21.2902L40.1832 37.3302L41.6832 37.3365ZM41.7498 21.2933C41.7498 20.7174 42.0251 20.1577 42.492 19.7881L41.561 18.612C40.7479 19.2557 40.2498 20.2425 40.2498 21.2933H41.7498ZM42.4873 19.7918L51.8206 12.5252L50.8991 11.3416L41.5658 18.6083L42.4873 19.7918ZM51.8203 12.5254C52.5076 11.9908 53.4774 11.9869 54.1833 12.5284L55.0963 11.3383C53.8556 10.3865 52.1321 10.3826 50.8994 11.3414L51.8203 12.5254ZM54.1796 12.5256L63.513 19.7789L64.4334 18.5945L55.1001 11.3412L54.1796 12.5256ZM63.5136 19.7794C63.981 20.1419 64.2498 20.695 64.2498 21.2933H65.7498C65.7498 20.2383 65.272 19.2449 64.4328 18.594L63.5136 19.7794ZM64.2498 21.2933V37.3334H65.7498V21.2933H64.2498ZM54.3332 29.9167H51.6665V31.4167H54.3332V29.9167ZM51.6665 29.9167C50.1456 29.9167 48.9165 31.1458 48.9165 32.6667H50.4165C50.4165 31.9742 50.9741 31.4167 51.6665 31.4167V29.9167ZM48.9165 32.6667V37.3333H50.4165V32.6667H48.9165ZM49.6665 38.0833H56.3332V36.5833H49.6665V38.0833ZM57.0832 37.3333V32.6667H55.5832V37.3333H57.0832ZM57.0832 32.6667C57.0832 31.1458 55.8541 29.9167 54.3332 29.9167V31.4167C55.0256 31.4167 55.5832 31.9742 55.5832 32.6667H57.0832ZM49.6665 25.5833H46.9998V27.0833H49.6665V25.5833ZM46.9998 25.5833C46.6807 25.5833 46.4165 25.3191 46.4165 25H44.9165C44.9165 26.1475 45.8523 27.0833 46.9998 27.0833V25.5833ZM46.4165 25V23H44.9165V25H46.4165ZM46.4165 23C46.4165 22.6809 46.6807 22.4167 46.9998 22.4167V20.9167C45.8523 20.9167 44.9165 21.8525 44.9165 23H46.4165ZM46.9998 22.4167H49.6665V20.9167H46.9998V22.4167ZM49.6665 22.4167C49.9856 22.4167 50.2498 22.6809 50.2498 23H51.7498C51.7498 21.8525 50.8141 20.9167 49.6665 20.9167V22.4167ZM50.2498 23V25H51.7498V23H50.2498ZM50.2498 25C50.2498 25.3191 49.9856 25.5833 49.6665 25.5833V27.0833C50.8141 27.0833 51.7498 26.1475 51.7498 25H50.2498ZM58.9998 25.5833H56.3332V27.0833H58.9998V25.5833ZM56.3332 25.5833C56.0141 25.5833 55.7498 25.3191 55.7498 25H54.2498C54.2498 26.1475 55.1856 27.0833 56.3332 27.0833V25.5833ZM55.7498 25V23H54.2498V25H55.7498ZM55.7498 23C55.7498 22.6809 56.0141 22.4167 56.3332 22.4167V20.9167C55.1856 20.9167 54.2498 21.8525 54.2498 23H55.7498ZM56.3332 22.4167H58.9998V20.9167H56.3332V22.4167ZM58.9998 22.4167C59.319 22.4167 59.5832 22.6809 59.5832 23H61.0832C61.0832 21.8525 60.1474 20.9167 58.9998 20.9167V22.4167ZM59.5832 23V25H61.0832V23H59.5832ZM59.5832 25C59.5832 25.3191 59.319 25.5833 58.9998 25.5833V27.0833C60.1474 27.0833 61.0832 26.1475 61.0832 25H59.5832ZM63.0831 17.3258L63.0431 13.3258L61.5432 13.3408L61.5832 17.3408L63.0831 17.3258ZM62.2932 12.5833H56.4265V14.0833H62.2932V12.5833Z" fill="#04182F"/>
<path d="M33.392 63C32.336 63 31.456 62.8773 30.752 62.632C30.048 62.3867 29.52 62.0133 29.168 61.512C28.816 61.0107 28.64 60.3707 28.64 59.592C28.64 59.336 28.656 59.0587 28.688 58.76C28.7307 58.4613 28.7787 58.1733 28.832 57.896C28.8853 57.608 28.9333 57.3627 28.976 57.16C29.0187 56.9467 29.0453 56.8027 29.056 56.728L30.272 56.952C30.24 57.1227 30.192 57.3573 30.128 57.656C30.0747 57.9547 30.0213 58.2747 29.968 58.616C29.9147 58.9573 29.888 59.2827 29.888 59.592C29.888 59.9867 29.9467 60.328 30.064 60.616C30.192 60.904 30.3893 61.144 30.656 61.336C30.9333 61.5173 31.296 61.6507 31.744 61.736C32.192 61.8213 32.7413 61.864 33.392 61.864H38.096V55H39.344V63H33.392ZM32.288 55.112V53.672H33.536V55.112H32.288ZM34.48 55.112V53.672H35.728V55.112H34.48ZM42.1766 63V51.528H43.4086V63H42.1766ZM45.0815 66.536C44.9428 66.536 44.7988 66.5253 44.6495 66.504C44.4895 66.4933 44.3348 66.4827 44.1855 66.472L44.3295 65.336C44.4788 65.3467 44.6175 65.3573 44.7455 65.368C44.8735 65.3893 44.9855 65.4 45.0815 65.4C45.5828 65.4 45.9882 65.208 46.2975 64.824C46.6068 64.4507 46.7615 63.928 46.7615 63.256V55H48.0095V63.256C48.0095 63.9067 47.8815 64.4773 47.6255 64.968C47.3802 65.4693 47.0388 65.8533 46.6015 66.12C46.1642 66.3973 45.6575 66.536 45.0815 66.536ZM51.9086 63V61.864H53.8606V63H51.9086ZM50.6766 63V51.528H51.9086V63H50.6766ZM53.8606 63V61.864C53.9246 61.864 53.978 61.88 54.0206 61.912C54.0633 61.9333 54.0953 61.9707 54.1166 62.024C54.138 62.0667 54.154 62.1253 54.1646 62.2C54.1753 62.264 54.1806 62.3387 54.1806 62.424C54.1806 62.5093 54.1753 62.5893 54.1646 62.664C54.154 62.7387 54.138 62.8027 54.1166 62.856C54.0953 62.8987 54.0633 62.936 54.0206 62.968C53.978 62.9893 53.9246 63 53.8606 63ZM62.3554 63V61.864H64.0834V63H62.3554ZM53.8594 63C53.7954 63 53.742 62.9893 53.6994 62.968C53.6567 62.936 53.6247 62.8987 53.6034 62.856C53.582 62.8027 53.566 62.7387 53.5554 62.664C53.5447 62.5893 53.5394 62.5093 53.5394 62.424C53.5394 62.3067 53.55 62.2107 53.5714 62.136C53.582 62.0507 53.614 61.9867 53.6674 61.944C53.71 61.8907 53.774 61.864 53.8594 61.864V63ZM53.8594 63V61.864H61.9394L61.1074 62.584V55.592L61.7634 56.136H59.0434C58.4247 56.136 57.9447 56.2107 57.6034 56.36C57.2727 56.5093 57.0434 56.792 56.9154 57.208C56.7874 57.6133 56.7234 58.2107 56.7234 59C56.7234 59.7893 56.7874 60.392 56.9154 60.808C57.0434 61.2133 57.2727 61.4907 57.6034 61.64C57.9447 61.7893 58.4247 61.864 59.0434 61.864V62.68C58.1154 62.68 57.39 62.568 56.8674 62.344C56.3554 62.1093 55.9927 61.7253 55.7794 61.192C55.5767 60.648 55.4754 59.9173 55.4754 59C55.4754 58.0827 55.5767 57.3307 55.7794 56.744C55.9927 56.1467 56.3554 55.7093 56.8674 55.432C57.39 55.144 58.1154 55 59.0434 55H62.3554V63H53.8594ZM64.0834 63V61.864C64.1474 61.864 64.2007 61.88 64.2434 61.912C64.286 61.9333 64.318 61.9707 64.3394 62.024C64.3607 62.0667 64.3767 62.1253 64.3874 62.2C64.398 62.264 64.4034 62.3387 64.4034 62.424C64.4034 62.5093 64.398 62.5893 64.3874 62.664C64.3767 62.7387 64.3607 62.8027 64.3394 62.856C64.318 62.8987 64.286 62.936 64.2434 62.968C64.2007 62.9893 64.1474 63 64.0834 63ZM57.5714 53.56V52.12H58.8194V53.56H57.5714ZM59.7634 53.56V52.12H61.0114V53.56H59.7634ZM67.5501 62.952C66.9741 62.4613 66.5315 61.9013 66.2221 61.272C65.9235 60.632 65.7741 59.9547 65.7741 59.24C65.7741 58.632 65.8808 58.072 66.0941 57.56C66.3075 57.0373 66.6008 56.584 66.9741 56.2C67.3475 55.816 67.7901 55.5227 68.3021 55.32C68.8141 55.1067 69.3635 55 69.9501 55C70.2595 55 70.5901 55.032 70.9421 55.096C71.3048 55.16 71.6515 55.2507 71.9821 55.368L71.5501 56.44C71.2835 56.344 71.0115 56.2693 70.7341 56.216C70.4675 56.1627 70.2115 56.136 69.9661 56.136C69.4008 56.136 68.8941 56.2693 68.4461 56.536C67.9981 56.8027 67.6461 57.1707 67.3901 57.64C67.1448 58.0987 67.0221 58.632 67.0221 59.24C67.0221 59.7947 67.1341 60.3173 67.3581 60.808C67.5928 61.288 67.9288 61.7147 68.3661 62.088L67.5501 62.952ZM64.0781 63V61.864H72.1741V63H64.0781ZM64.0781 63C64.0141 63 63.9608 62.9893 63.9181 62.968C63.8755 62.936 63.8435 62.8987 63.8221 62.856C63.8008 62.8027 63.7848 62.7387 63.7741 62.664C63.7635 62.5893 63.7581 62.5093 63.7581 62.424C63.7581 62.3067 63.7688 62.2107 63.7901 62.136C63.8008 62.0507 63.8328 61.9867 63.8861 61.944C63.9288 61.8907 63.9928 61.864 64.0781 61.864V63Z" fill="#04182F"/>
</svg>
