<svg width="107" height="84" viewBox="0 0 107 84" fill="none" xmlns="http://www.w3.org/2000/svg">
<rect x="0.5" y="0.5" width="106" height="83" rx="7.5" fill="white" stroke="#04182F"/>
<path d="M28.456 61V59.864H30.184V61H28.456ZM24.136 64.968C23.2933 64.968 22.5307 64.8133 21.848 64.504C21.1653 64.1947 20.6267 63.7627 20.232 63.208C19.8373 62.6533 19.64 62.0187 19.64 61.304C19.64 61.08 19.656 60.7867 19.688 60.424C19.7307 60.0507 19.7787 59.64 19.832 59.192C19.896 58.7333 19.9653 58.2747 20.04 57.816C20.1147 57.3467 20.184 56.904 20.248 56.488L21.48 56.68C21.3627 57.416 21.256 58.0987 21.16 58.728C21.0747 59.3467 21.0053 59.88 20.952 60.328C20.9093 60.7653 20.888 61.0907 20.888 61.304C20.888 61.7947 21.0213 62.2267 21.288 62.6C21.5653 62.984 21.9493 63.2827 22.44 63.496C22.9307 63.72 23.496 63.832 24.136 63.832C24.776 63.832 25.3253 63.7307 25.784 63.528C26.2427 63.3253 26.5947 63.0427 26.84 62.68C27.0853 62.3173 27.208 61.8907 27.208 61.4V49.528H28.456V61.4C28.456 62.1467 28.2587 62.7867 27.864 63.32C27.48 63.8533 26.9627 64.2587 26.312 64.536C25.6613 64.824 24.936 64.968 24.136 64.968ZM30.184 61V59.864C30.248 59.864 30.3013 59.88 30.344 59.912C30.3867 59.9333 30.4187 59.9707 30.44 60.024C30.4613 60.0667 30.4773 60.1253 30.488 60.2C30.4987 60.264 30.504 60.3387 30.504 60.424C30.504 60.5093 30.4987 60.5893 30.488 60.664C30.4773 60.7387 30.4613 60.8027 30.44 60.856C30.4187 60.8987 30.3867 60.936 30.344 60.968C30.3013 60.9893 30.248 61 30.184 61ZM39.2595 61V59.864H40.9875V61H39.2595ZM30.1875 61C30.1235 61 30.0702 60.9893 30.0275 60.968C29.9848 60.936 29.9528 60.8987 29.9315 60.856C29.9102 60.8027 29.8942 60.7387 29.8835 60.664C29.8728 60.5893 29.8675 60.5093 29.8675 60.424C29.8675 60.3067 29.8782 60.2107 29.8995 60.136C29.9102 60.0507 29.9422 59.9867 29.9955 59.944C30.0382 59.8907 30.1022 59.864 30.1875 59.864V61ZM30.1875 61V59.864H38.9395L38.0115 60.52V57.08C38.0115 56.3333 37.9262 55.7467 37.7555 55.32C37.5848 54.8933 37.2915 54.5893 36.8755 54.408C36.4702 54.2267 35.9155 54.136 35.2115 54.136C34.7635 54.136 34.3155 54.168 33.8675 54.232C33.4302 54.296 33.0888 54.3813 32.8435 54.488L33.5955 53.72C33.5315 53.976 33.4675 54.3013 33.4035 54.696C33.3395 55.08 33.2862 55.496 33.2435 55.944C33.2008 56.392 33.1795 56.84 33.1795 57.288C33.1795 57.7467 33.2008 58.1947 33.2435 58.632C33.2862 59.0693 33.3342 59.448 33.3875 59.768C33.4408 60.088 33.4835 60.312 33.5155 60.44L32.3315 60.776C32.2888 60.6373 32.2355 60.3973 32.1715 60.056C32.1182 59.7147 32.0648 59.304 32.0115 58.824C31.9688 58.344 31.9475 57.832 31.9475 57.288C31.9475 56.7653 31.9688 56.2587 32.0115 55.768C32.0648 55.2667 32.1235 54.8133 32.1875 54.408C32.2622 54.0027 32.3315 53.6773 32.3955 53.432C32.6302 53.336 33.0035 53.24 33.5155 53.144C34.0275 53.048 34.5928 53 35.2115 53C36.1075 53 36.8542 53.1333 37.4515 53.4C38.0595 53.6667 38.5128 54.0987 38.8115 54.696C39.1102 55.2827 39.2595 56.0773 39.2595 57.08V61H30.1875ZM40.9875 61V59.864C41.0515 59.864 41.1048 59.88 41.1475 59.912C41.1902 59.9333 41.2222 59.9707 41.2435 60.024C41.2648 60.0667 41.2808 60.1253 41.2915 60.2C41.3022 60.264 41.3075 60.3387 41.3075 60.424C41.3075 60.5093 41.3022 60.5893 41.2915 60.664C41.2808 60.7387 41.2648 60.8027 41.2435 60.856C41.2222 60.8987 41.1902 60.936 41.1475 60.968C41.1048 60.9893 41.0515 61 40.9875 61ZM44.4564 60.952C43.8804 60.4613 43.4377 59.9013 43.1284 59.272C42.8297 58.632 42.6804 57.9547 42.6804 57.24C42.6804 56.632 42.787 56.072 43.0004 55.56C43.2137 55.0373 43.507 54.584 43.8804 54.2C44.2537 53.816 44.6964 53.5227 45.2084 53.32C45.7204 53.1067 46.2697 53 46.8564 53C47.1657 53 47.4964 53.032 47.8484 53.096C48.211 53.16 48.5577 53.2507 48.8884 53.368L48.4564 54.44C48.1897 54.344 47.9177 54.2693 47.6404 54.216C47.3737 54.1627 47.1177 54.136 46.8724 54.136C46.307 54.136 45.8004 54.2693 45.3524 54.536C44.9044 54.8027 44.5524 55.1707 44.2964 55.64C44.051 56.0987 43.9284 56.632 43.9284 57.24C43.9284 57.7947 44.0404 58.3173 44.2644 58.808C44.499 59.288 44.835 59.7147 45.2724 60.088L44.4564 60.952ZM40.9844 61V59.864H49.0804V61H40.9844ZM40.9844 61C40.9204 61 40.867 60.9893 40.8244 60.968C40.7817 60.936 40.7497 60.8987 40.7284 60.856C40.707 60.8027 40.691 60.7387 40.6804 60.664C40.6697 60.5893 40.6644 60.5093 40.6644 60.424C40.6644 60.3067 40.675 60.2107 40.6964 60.136C40.707 60.0507 40.739 59.9867 40.7924 59.944C40.835 59.8907 40.899 59.864 40.9844 59.864V61ZM59.1048 64.968C58.2621 64.968 57.4994 64.8133 56.8168 64.504C56.1341 64.1947 55.5954 63.7627 55.2008 63.208C54.8061 62.6533 54.6088 62.0187 54.6088 61.304C54.6088 61.08 54.6248 60.7867 54.6568 60.424C54.6994 60.0507 54.7474 59.64 54.8008 59.192C54.8648 58.7333 54.9341 58.2747 55.0088 57.816C55.0834 57.3467 55.1528 56.904 55.2168 56.488L56.4488 56.68C56.3314 57.416 56.2248 58.0987 56.1288 58.728C56.0434 59.3467 55.9741 59.88 55.9208 60.328C55.8781 60.7653 55.8568 61.0907 55.8568 61.304C55.8568 61.7947 55.9901 62.2267 56.2568 62.6C56.5341 62.984 56.9181 63.2827 57.4088 63.496C57.8994 63.72 58.4648 63.832 59.1048 63.832C59.7448 63.832 60.2941 63.7307 60.7528 63.528C61.2114 63.3253 61.5634 63.0427 61.8088 62.68C62.0541 62.3173 62.1768 61.8907 62.1768 61.4V53H63.4248V61.4C63.4248 62.1467 63.2274 62.7867 62.8328 63.32C62.4488 63.8533 61.9314 64.2587 61.2808 64.536C60.6301 64.824 59.9048 64.968 59.1048 64.968ZM63.4248 61V59.864H71.7288L70.5768 60.904V57.144C70.5768 56.472 70.4808 55.9173 70.2888 55.48C70.1074 55.032 69.8301 54.696 69.4568 54.472C69.0941 54.248 68.6354 54.136 68.0808 54.136C67.6114 54.136 67.1741 54.216 66.7688 54.376C66.3741 54.5253 66.0061 54.728 65.6648 54.984C65.3234 55.2293 65.0034 55.5067 64.7048 55.816C64.4168 56.1147 64.1501 56.4187 63.9048 56.728C63.6594 57.0373 63.4354 57.32 63.2328 57.576L62.8168 56.44C63.0834 56.1093 63.3501 55.7787 63.6168 55.448C63.8941 55.1173 64.1821 54.808 64.4808 54.52C64.7794 54.2213 65.1048 53.96 65.4568 53.736C65.8194 53.512 66.2141 53.336 66.6408 53.208C67.0674 53.0693 67.5474 53 68.0808 53C68.8381 53 69.4568 53.128 69.9368 53.384C70.4274 53.64 70.8061 53.9813 71.0728 54.408C71.3501 54.824 71.5421 55.272 71.6488 55.752C71.7554 56.232 71.8088 56.696 71.8088 57.144V61H63.4248ZM75.7833 61V59.864H77.8313V61H75.7833ZM73.1753 64.536C73.0366 64.536 72.8926 64.5253 72.7432 64.504C72.5832 64.4933 72.4286 64.4827 72.2792 64.472L72.4232 63.336C72.5726 63.3467 72.7112 63.3573 72.8392 63.368C72.9672 63.3893 73.0793 63.4 73.1753 63.4C73.6766 63.4 74.0819 63.208 74.3913 62.824C74.7006 62.4507 74.8553 61.928 74.8553 61.256V53H76.1033V61.256C76.1033 61.9067 75.9753 62.4773 75.7193 62.968C75.4739 63.4693 75.1326 63.8533 74.6953 64.12C74.2579 64.3973 73.7513 64.536 73.1753 64.536ZM77.8313 61V59.864C77.8953 59.864 77.9486 59.88 77.9913 59.912C78.0339 59.9333 78.0659 59.9707 78.0873 60.024C78.1086 60.0667 78.1246 60.1253 78.1353 60.2C78.1459 60.264 78.1513 60.3387 78.1513 60.424C78.1513 60.5093 78.1459 60.5893 78.1353 60.664C78.1246 60.7387 78.1086 60.8027 78.0873 60.856C78.0659 60.8987 78.0339 60.936 77.9913 60.968C77.9486 60.9893 77.8953 61 77.8313 61ZM77.8281 61V59.864H85.9081L85.0761 60.584V53.592L85.7321 54.136H83.0121C82.3935 54.136 81.9135 54.2107 81.5721 54.36C81.2415 54.5093 81.0121 54.792 80.8841 55.208C80.7561 55.6133 80.6921 56.2107 80.6921 57C80.6921 57.7893 80.7561 58.392 80.8841 58.808C81.0121 59.2133 81.2415 59.4907 81.5721 59.64C81.9135 59.7893 82.3935 59.864 83.0121 59.864V60.68C82.0841 60.68 81.3588 60.568 80.8361 60.344C80.3241 60.1093 79.9615 59.7253 79.7481 59.192C79.5455 58.648 79.4441 57.9173 79.4441 57C79.4441 56.0827 79.5455 55.3307 79.7481 54.744C79.9615 54.1467 80.3241 53.7093 80.8361 53.432C81.3588 53.144 82.0841 53 83.0121 53H86.3241V61H77.8281ZM77.8281 61C77.7641 61 77.7108 60.9893 77.6681 60.968C77.6255 60.936 77.5935 60.8987 77.5721 60.856C77.5508 60.8027 77.5348 60.7387 77.5241 60.664C77.5135 60.5893 77.5081 60.5093 77.5081 60.424C77.5081 60.3067 77.5188 60.2107 77.5401 60.136C77.5508 60.0507 77.5828 59.9867 77.6361 59.944C77.6788 59.8907 77.7428 59.864 77.8281 59.864V61ZM82.6281 51.56V50.12H83.8761V51.56H82.6281Z" fill="#04182F"/>
<path d="M54 24C52.35 24 50.9375 23.4125 49.7625 22.2375C48.5875 21.0625 48 19.65 48 18C48 16.35 48.5875 14.9375 49.7625 13.7625C50.9375 12.5875 52.35 12 54 12C55.65 12 57.0625 12.5875 58.2375 13.7625C59.4125 14.9375 60 16.35 60 18C60 19.65 59.4125 21.0625 58.2375 22.2375C57.0625 23.4125 55.65 24 54 24ZM42 36V31.8C42 30.95 42.2187 30.1687 42.6562 29.4562C43.0938 28.7437 43.675 28.2 44.4 27.825C45.95 27.05 47.525 26.4688 49.125 26.0812C50.725 25.6937 52.35 25.5 54 25.5C55.65 25.5 57.275 25.6937 58.875 26.0812C60.475 26.4688 62.05 27.05 63.6 27.825C64.325 28.2 64.9062 28.7437 65.3438 29.4562C65.7812 30.1687 66 30.95 66 31.8V36H42ZM45 33H63V31.8C63 31.525 62.9312 31.275 62.7938 31.05C62.6562 30.825 62.475 30.65 62.25 30.525C60.9 29.85 59.5375 29.3438 58.1625 29.0063C56.7875 28.6688 55.4 28.5 54 28.5C52.6 28.5 51.2125 28.6688 49.8375 29.0063C48.4625 29.3438 47.1 29.85 45.75 30.525C45.525 30.65 45.3438 30.825 45.2063 31.05C45.0688 31.275 45 31.525 45 31.8V33ZM54 21C54.825 21 55.5313 20.7063 56.1188 20.1187C56.7063 19.5312 57 18.825 57 18C57 17.175 56.7063 16.4688 56.1188 15.8813C55.5313 15.2938 54.825 15 54 15C53.175 15 52.4688 15.2938 51.8813 15.8813C51.2937 16.4688 51 17.175 51 18C51 18.825 51.2937 19.5312 51.8813 20.1187C52.4688 20.7063 53.175 21 54 21Z" fill="#04182F"/>
</svg>
