<svg width="107" height="84" viewBox="0 0 107 84" fill="none" xmlns="http://www.w3.org/2000/svg">
<rect x="0.5" y="0.5" width="106" height="83" rx="7.5" fill="white" stroke="#04182F"/>
<path d="M45.9334 32H42.5334C40.6268 32 39.6667 31.04 39.6667 29.1333V13.5334C39.6667 11.6267 40.6268 10.6667 42.5334 10.6667H48.2668C50.1734 10.6667 51.1334 11.6267 51.1334 13.5334V16M54.8668 16V13.5334C54.8668 11.6267 55.8267 10.6667 57.7334 10.6667H63.4667C65.3734 10.6667 66.3334 11.6267 66.3334 13.5334V29.1333C66.3334 31.04 65.3734 32 63.4667 32H60.1601M50.3334 22.6667H55.6667M50.3334 26.6667H55.6667M53.0001 37.3333V33.3333M60.1601 19.2266V34.1067C60.1601 36.2534 59.0934 37.3333 56.9468 37.3333H49.1601C47.0134 37.3333 45.9334 36.2534 45.9334 34.1067V19.2266C45.9334 17.08 47.0134 16 49.1601 16H56.9468C59.0934 16 60.1601 17.08 60.1601 19.2266Z" stroke="#04182F" stroke-width="1.5" stroke-miterlimit="10" stroke-linecap="round" stroke-linejoin="round"/>
<path d="M29.8608 62C28.8048 62 27.9248 61.8773 27.2208 61.632C26.5168 61.3867 25.9888 61.0133 25.6368 60.512C25.2848 60.0107 25.1088 59.3707 25.1088 58.592C25.1088 58.336 25.1248 58.0587 25.1568 57.76C25.1994 57.4613 25.2474 57.1733 25.3008 56.896C25.3541 56.608 25.4021 56.3627 25.4448 56.16C25.4874 55.9467 25.5141 55.8027 25.5247 55.728L26.7408 55.952C26.7088 56.1227 26.6608 56.3573 26.5968 56.656C26.5434 56.9547 26.4901 57.2747 26.4368 57.616C26.3834 57.9573 26.3568 58.2827 26.3568 58.592C26.3568 58.9867 26.4154 59.328 26.5328 59.616C26.6608 59.904 26.8581 60.144 27.1248 60.336C27.4021 60.5173 27.7648 60.6507 28.2128 60.736C28.6608 60.8213 29.2101 60.864 29.8608 60.864H34.5648V54H35.8128V62H29.8608ZM28.7568 54.112V52.672H30.0048V54.112H28.7568ZM30.9488 54.112V52.672H32.1968V54.112H30.9488ZM39.8774 62V60.864H41.8294V62H39.8774ZM38.6454 62V50.528H39.8774V62H38.6454ZM41.8294 62V60.864C41.8934 60.864 41.9467 60.88 41.9894 60.912C42.032 60.9333 42.064 60.9707 42.0854 61.024C42.1067 61.0667 42.1227 61.1253 42.1334 61.2C42.144 61.264 42.1494 61.3387 42.1494 61.424C42.1494 61.5093 42.144 61.5893 42.1334 61.664C42.1227 61.7387 42.1067 61.8027 42.0854 61.856C42.064 61.8987 42.032 61.936 41.9894 61.968C41.9467 61.9893 41.8934 62 41.8294 62ZM41.8281 62V60.864H49.9081L49.0761 61.584V54.592L49.7321 55.136H47.0121C46.3935 55.136 45.9135 55.2107 45.5721 55.36C45.2415 55.5093 45.0121 55.792 44.8841 56.208C44.7561 56.6133 44.6921 57.2107 44.6921 58C44.6921 58.7893 44.7561 59.392 44.8841 59.808C45.0121 60.2133 45.2415 60.4907 45.5721 60.64C45.9135 60.7893 46.3935 60.864 47.0121 60.864V61.68C46.0841 61.68 45.3588 61.568 44.8361 61.344C44.3241 61.1093 43.9615 60.7253 43.7481 60.192C43.5455 59.648 43.4441 58.9173 43.4441 58C43.4441 57.0827 43.5455 56.3307 43.7481 55.744C43.9615 55.1467 44.3241 54.7093 44.8361 54.432C45.3588 54.144 46.0841 54 47.0121 54H50.3241V62H41.8281ZM41.8281 62C41.7641 62 41.7108 61.9893 41.6681 61.968C41.6255 61.936 41.5935 61.8987 41.5721 61.856C41.5508 61.8027 41.5348 61.7387 41.5241 61.664C41.5135 61.5893 41.5081 61.5093 41.5081 61.424C41.5081 61.3067 41.5188 61.2107 41.5401 61.136C41.5508 61.0507 41.5828 60.9867 41.6361 60.944C41.6788 60.8907 41.7428 60.864 41.8281 60.864V62ZM45.5401 52.56V51.12H46.7881V52.56H45.5401ZM47.7321 52.56V51.12H48.9801V52.56H47.7321ZM54.2989 62V60.864H56.3469V62H54.2989ZM51.6909 65.536C51.5522 65.536 51.4082 65.5253 51.2589 65.504C51.0989 65.4933 50.9442 65.4827 50.7949 65.472L50.9389 64.336C51.0882 64.3467 51.2269 64.3573 51.3549 64.368C51.4829 64.3893 51.5949 64.4 51.6909 64.4C52.1922 64.4 52.5975 64.208 52.9069 63.824C53.2162 63.4507 53.3709 62.928 53.3709 62.256V54H54.6189V62.256C54.6189 62.9067 54.4909 63.4773 54.2349 63.968C53.9895 64.4693 53.6482 64.8533 53.2109 65.12C52.7735 65.3973 52.2669 65.536 51.6909 65.536ZM56.3469 62V60.864C56.4109 60.864 56.4642 60.88 56.5069 60.912C56.5495 60.9333 56.5815 60.9707 56.6029 61.024C56.6242 61.0667 56.6402 61.1253 56.6509 61.2C56.6615 61.264 56.6669 61.3387 56.6669 61.424C56.6669 61.5093 56.6615 61.5893 56.6509 61.664C56.6402 61.7387 56.6242 61.8027 56.6029 61.856C56.5815 61.8987 56.5495 61.936 56.5069 61.968C56.4642 61.9893 56.4109 62 56.3469 62ZM64.8398 62V60.864H66.5678V62H64.8398ZM56.3438 62C56.2797 62 56.2264 61.9893 56.1837 61.968C56.1411 61.936 56.1091 61.8987 56.0877 61.856C56.0664 61.8027 56.0504 61.7387 56.0397 61.664C56.0291 61.5893 56.0237 61.5093 56.0237 61.424C56.0237 61.3067 56.0344 61.2107 56.0557 61.136C56.0664 61.0507 56.0984 60.9867 56.1517 60.944C56.1944 60.8907 56.2584 60.864 56.3438 60.864V62ZM56.3438 62V60.864H64.4237L63.5918 61.584V54.592L64.2478 55.136H61.5278C60.9091 55.136 60.4291 55.2107 60.0878 55.36C59.7571 55.5093 59.5278 55.792 59.3998 56.208C59.2718 56.6133 59.2078 57.2107 59.2078 58C59.2078 58.7893 59.2718 59.392 59.3998 59.808C59.5278 60.2133 59.7571 60.4907 60.0878 60.64C60.4291 60.7893 60.9091 60.864 61.5278 60.864V61.68C60.5998 61.68 59.8744 61.568 59.3518 61.344C58.8398 61.1093 58.4771 60.7253 58.2638 60.192C58.0611 59.648 57.9598 58.9173 57.9598 58C57.9598 57.0827 58.0611 56.3307 58.2638 55.744C58.4771 55.1467 58.8398 54.7093 59.3518 54.432C59.8744 54.144 60.5998 54 61.5278 54H64.8398V62H56.3438ZM66.5678 62V60.864C66.6318 60.864 66.6851 60.88 66.7278 60.912C66.7704 60.9333 66.8024 60.9707 66.8238 61.024C66.8451 61.0667 66.8611 61.1253 66.8718 61.2C66.8824 61.264 66.8878 61.3387 66.8878 61.424C66.8878 61.5093 66.8824 61.5893 66.8718 61.664C66.8611 61.7387 66.8451 61.8027 66.8238 61.856C66.8024 61.8987 66.7704 61.936 66.7278 61.968C66.6851 61.9893 66.6318 62 66.5678 62ZM61.1438 52.56V51.12H62.3918V52.56H61.1438ZM69.5385 62V60.864H71.2665V62H69.5385ZM71.2665 62V60.864C71.3305 60.864 71.3838 60.88 71.4265 60.912C71.4692 60.9333 71.5012 60.9707 71.5225 61.024C71.5438 61.0667 71.5598 61.1253 71.5705 61.2C71.5812 61.264 71.5865 61.3387 71.5865 61.424C71.5865 61.5093 71.5812 61.5893 71.5705 61.664C71.5598 61.7387 71.5438 61.8027 71.5225 61.856C71.5012 61.8987 71.4692 61.936 71.4265 61.968C71.3838 61.9893 71.3305 62 71.2665 62ZM66.5625 62C66.4985 62 66.4452 61.9893 66.4025 61.968C66.3598 61.936 66.3278 61.8987 66.3065 61.856C66.2852 61.8027 66.2692 61.7387 66.2585 61.664C66.2478 61.5893 66.2425 61.5093 66.2425 61.424C66.2425 61.3067 66.2532 61.2107 66.2745 61.136C66.2852 61.0507 66.3172 60.9867 66.3705 60.944C66.4132 60.8907 66.4772 60.864 66.5625 60.864V62ZM66.5625 62V60.864H68.8665L68.2905 61.328V54H69.5385V62H66.5625ZM67.2025 52.56V51.12H68.4505V52.56H67.2025ZM69.3945 52.56V51.12H70.6425V52.56H69.3945ZM71.2656 62V60.864H80.0176L79.0896 61.52V58.08C79.0896 57.3333 79.0043 56.7467 78.8336 56.32C78.663 55.8933 78.3696 55.5893 77.9536 55.408C77.5483 55.2267 76.9936 55.136 76.2896 55.136C75.8416 55.136 75.3936 55.168 74.9456 55.232C74.5083 55.296 74.167 55.3813 73.9216 55.488L74.6736 54.72C74.6096 54.976 74.5456 55.3013 74.4816 55.696C74.4176 56.08 74.3643 56.496 74.3216 56.944C74.279 57.392 74.2576 57.84 74.2576 58.288C74.2576 58.7467 74.279 59.1947 74.3216 59.632C74.3643 60.0693 74.4123 60.448 74.4656 60.768C74.519 61.088 74.5616 61.312 74.5936 61.44L73.4096 61.776C73.367 61.6373 73.3136 61.3973 73.2496 61.056C73.1963 60.7147 73.143 60.304 73.0896 59.824C73.047 59.344 73.0256 58.832 73.0256 58.288C73.0256 57.7653 73.047 57.2587 73.0896 56.768C73.143 56.2667 73.2016 55.8133 73.2656 55.408C73.3403 55.0027 73.4096 54.6773 73.4736 54.432C73.7083 54.336 74.0816 54.24 74.5936 54.144C75.1056 54.048 75.671 54 76.2896 54C77.1856 54 77.9323 54.1333 78.5296 54.4C79.1376 54.6667 79.591 55.0987 79.8896 55.696C80.1883 56.2827 80.3376 57.0773 80.3376 58.08V62H71.2656ZM71.2656 62C71.2016 62 71.1483 61.9893 71.1056 61.968C71.063 61.936 71.031 61.8987 71.0096 61.856C70.9883 61.8027 70.9723 61.7387 70.9616 61.664C70.951 61.5893 70.9456 61.5093 70.9456 61.424C70.9456 61.3067 70.9563 61.2107 70.9776 61.136C70.9883 61.0507 71.0203 60.9867 71.0736 60.944C71.1163 60.8907 71.1803 60.864 71.2656 60.864V62Z" fill="#04182F"/>
</svg>
