<svg width="107" height="84" viewBox="0 0 107 84" fill="none" xmlns="http://www.w3.org/2000/svg">
<rect x="0.5" y="0.5" width="106" height="83" rx="7.5" fill="white" stroke="#04182F"/>
<path d="M35.392 61C34.336 61 33.456 60.8773 32.752 60.632C32.048 60.3867 31.52 60.0133 31.168 59.512C30.816 59.0107 30.64 58.3707 30.64 57.592C30.64 57.336 30.656 57.0587 30.688 56.76C30.7307 56.4613 30.7787 56.1733 30.832 55.896C30.8853 55.608 30.9333 55.3627 30.976 55.16C31.0187 54.9467 31.0453 54.8027 31.056 54.728L32.272 54.952C32.24 55.1227 32.192 55.3573 32.128 55.656C32.0747 55.9547 32.0213 56.2747 31.968 56.616C31.9147 56.9573 31.888 57.2827 31.888 57.592C31.888 57.9867 31.9467 58.328 32.064 58.616C32.192 58.904 32.3893 59.144 32.656 59.336C32.9333 59.5173 33.296 59.6507 33.744 59.736C34.192 59.8213 34.7413 59.864 35.392 59.864H40.096V53H41.344V61H35.392ZM34.288 53.112V51.672H35.536V53.112H34.288ZM36.48 53.112V51.672H37.728V53.112H36.48ZM45.4086 61V59.864H47.3606V61H45.4086ZM44.1766 61V49.528H45.4086V61H44.1766ZM47.3606 61V59.864C47.4246 59.864 47.478 59.88 47.5206 59.912C47.5633 59.9333 47.5953 59.9707 47.6166 60.024C47.638 60.0667 47.654 60.1253 47.6646 60.2C47.6753 60.264 47.6806 60.3387 47.6806 60.424C47.6806 60.5093 47.6753 60.5893 47.6646 60.664C47.654 60.7387 47.638 60.8027 47.6166 60.856C47.5953 60.8987 47.5633 60.936 47.5206 60.968C47.478 60.9893 47.4246 61 47.3606 61ZM50.3354 61V59.864H52.0634V61H50.3354ZM47.3594 61C47.2954 61 47.242 60.9893 47.1994 60.968C47.1567 60.936 47.1247 60.8987 47.1034 60.856C47.082 60.8027 47.066 60.7387 47.0554 60.664C47.0447 60.5893 47.0394 60.5093 47.0394 60.424C47.0394 60.3067 47.05 60.2107 47.0714 60.136C47.082 60.0507 47.114 59.9867 47.1674 59.944C47.21 59.8907 47.274 59.864 47.3594 59.864V61ZM47.3594 61V59.864H49.6634L49.0874 60.328V53H50.3354V61H47.3594ZM52.0634 61V59.864C52.1274 59.864 52.1807 59.88 52.2234 59.912C52.266 59.9333 52.298 59.9707 52.3194 60.024C52.3407 60.0667 52.3567 60.1253 52.3674 60.2C52.378 60.264 52.3834 60.3387 52.3834 60.424C52.3834 60.5093 52.378 60.5893 52.3674 60.664C52.3567 60.7387 52.3407 60.8027 52.3194 60.856C52.298 60.8987 52.266 60.936 52.2234 60.968C52.1807 60.9893 52.1274 61 52.0634 61ZM49.0874 63.88V62.44H50.3354V63.88H49.0874ZM52.0625 61V59.864H60.0625L59.6145 60.264V57.416C59.6145 56.84 59.5345 56.3653 59.3745 55.992C59.2252 55.608 58.9958 55.3253 58.6865 55.144C58.3878 54.952 58.0092 54.856 57.5505 54.856H54.0625L53.1505 53.48L53.8385 52.152C53.9665 51.9173 54.0998 51.6773 54.2385 51.432C54.3772 51.1867 54.5478 50.904 54.7505 50.584C54.9532 50.264 55.2092 49.8747 55.5185 49.416L56.5585 50.04C56.2492 50.5093 55.9985 50.8987 55.8065 51.208C55.6145 51.5173 55.4492 51.784 55.3105 52.008C55.1825 52.232 55.0598 52.456 54.9425 52.68L54.1425 54.216L53.8225 53.72H57.5505C58.2225 53.72 58.7718 53.8373 59.1985 54.072C59.6358 54.296 59.9718 54.5947 60.2065 54.968C60.4518 55.3413 60.6225 55.7467 60.7185 56.184C60.8145 56.6107 60.8625 57.0213 60.8625 57.416V61H52.0625ZM52.0625 61C51.9985 61 51.9452 60.9893 51.9025 60.968C51.8598 60.936 51.8278 60.8987 51.8065 60.856C51.7852 60.8027 51.7692 60.7387 51.7585 60.664C51.7478 60.5893 51.7425 60.5093 51.7425 60.424C51.7425 60.3067 51.7532 60.2107 51.7745 60.136C51.7852 60.0507 51.8172 59.9867 51.8705 59.944C51.9132 59.8907 51.9772 59.864 52.0625 59.864V61ZM64.8145 61V59.864H66.8625V61H64.8145ZM62.2065 64.536C62.0678 64.536 61.9238 64.5253 61.7745 64.504C61.6145 64.4933 61.4598 64.4827 61.3105 64.472L61.4545 63.336C61.6038 63.3467 61.7425 63.3573 61.8705 63.368C61.9985 63.3893 62.1105 63.4 62.2065 63.4C62.7078 63.4 63.1132 63.208 63.4225 62.824C63.7318 62.4507 63.8865 61.928 63.8865 61.256V53H65.1345V61.256C65.1345 61.9067 65.0065 62.4773 64.7505 62.968C64.5052 63.4693 64.1638 63.8533 63.7265 64.12C63.2892 64.3973 62.7825 64.536 62.2065 64.536ZM66.8625 61V59.864C66.9265 59.864 66.9798 59.88 67.0225 59.912C67.0652 59.9333 67.0972 59.9707 67.1185 60.024C67.1398 60.0667 67.1558 60.1253 67.1665 60.2C67.1772 60.264 67.1825 60.3387 67.1825 60.424C67.1825 60.5093 67.1772 60.5893 67.1665 60.664C67.1558 60.7387 67.1398 60.8027 67.1185 60.856C67.0972 60.8987 67.0652 60.936 67.0225 60.968C66.9798 60.9893 66.9265 61 66.8625 61ZM66.8594 61V59.864H75.6114L74.6834 60.52V57.08C74.6834 56.3333 74.598 55.7467 74.4274 55.32C74.2567 54.8933 73.9634 54.5893 73.5474 54.408C73.142 54.2267 72.5874 54.136 71.8834 54.136C71.4354 54.136 70.9874 54.168 70.5394 54.232C70.102 54.296 69.7607 54.3813 69.5154 54.488L70.2674 53.72C70.2034 53.976 70.1394 54.3013 70.0754 54.696C70.0114 55.08 69.958 55.496 69.9154 55.944C69.8727 56.392 69.8514 56.84 69.8514 57.288C69.8514 57.7467 69.8727 58.1947 69.9154 58.632C69.958 59.0693 70.006 59.448 70.0594 59.768C70.1127 60.088 70.1554 60.312 70.1874 60.44L69.0034 60.776C68.9607 60.6373 68.9074 60.3973 68.8434 60.056C68.79 59.7147 68.7367 59.304 68.6834 58.824C68.6407 58.344 68.6194 57.832 68.6194 57.288C68.6194 56.7653 68.6407 56.2587 68.6834 55.768C68.7367 55.2667 68.7954 54.8133 68.8594 54.408C68.934 54.0027 69.0034 53.6773 69.0674 53.432C69.302 53.336 69.6754 53.24 70.1874 53.144C70.6994 53.048 71.2647 53 71.8834 53C72.7794 53 73.526 53.1333 74.1234 53.4C74.7314 53.6667 75.1847 54.0987 75.4834 54.696C75.782 55.2827 75.9314 56.0773 75.9314 57.08V61H66.8594ZM66.8594 61C66.7954 61 66.742 60.9893 66.6994 60.968C66.6567 60.936 66.6247 60.8987 66.6034 60.856C66.582 60.8027 66.566 60.7387 66.5554 60.664C66.5447 60.5893 66.5394 60.5093 66.5394 60.424C66.5394 60.3067 66.55 60.2107 66.5714 60.136C66.582 60.0507 66.614 59.9867 66.6674 59.944C66.71 59.8907 66.774 59.864 66.8594 59.864V61Z" fill="#04182F"/>
<path d="M46 33V34.5C46 34.925 45.8722 35.2812 45.6167 35.5688C45.3611 35.8563 45.0444 36 44.6667 36H43.3333C42.9556 36 42.6389 35.8563 42.3833 35.5688C42.1278 35.2812 42 34.925 42 34.5V22.5L44.8 13.5C44.9333 13.05 45.1722 12.6875 45.5167 12.4125C45.8611 12.1375 46.2444 12 46.6667 12H61.3333C61.7556 12 62.1389 12.1375 62.4833 12.4125C62.8278 12.6875 63.0667 13.05 63.2 13.5L66 22.5V34.5C66 34.925 65.8722 35.2812 65.6167 35.5688C65.3611 35.8563 65.0444 36 64.6667 36H63.3333C62.9556 36 62.6389 35.8563 62.3833 35.5688C62.1278 35.2812 62 34.925 62 34.5V33H46ZM45.7333 19.5H62.2667L60.8667 15H47.1333L45.7333 19.5ZM48 28.5C48.5556 28.5 49.0278 28.2812 49.4167 27.8438C49.8056 27.4062 50 26.875 50 26.25C50 25.625 49.8056 25.0938 49.4167 24.6562C49.0278 24.2188 48.5556 24 48 24C47.4444 24 46.9722 24.2188 46.5833 24.6562C46.1944 25.0938 46 25.625 46 26.25C46 26.875 46.1944 27.4062 46.5833 27.8438C46.9722 28.2812 47.4444 28.5 48 28.5ZM60 28.5C60.5556 28.5 61.0278 28.2812 61.4167 27.8438C61.8056 27.4062 62 26.875 62 26.25C62 25.625 61.8056 25.0938 61.4167 24.6562C61.0278 24.2188 60.5556 24 60 24C59.4444 24 58.9722 24.2188 58.5833 24.6562C58.1944 25.0938 58 25.625 58 26.25C58 26.875 58.1944 27.4062 58.5833 27.8438C58.9722 28.2812 59.4444 28.5 60 28.5ZM44.6667 30H63.3333V22.5H44.6667V30Z" fill="#04182F"/>
</svg>
